<?xml version="1.0" encoding="utf-8"?>
<!-- Generator: Adobe Illustrator 25.2.1, SVG Export Plug-In . SVG Version: 6.00 Build 0)  -->
<svg version="1.1" id="Camada_1" xmlns="http://www.w3.org/2000/svg" xmlns:xlink="http://www.w3.org/1999/xlink" x="0px" y="0px"
	 viewBox="0 0 500 500" style="enable-background:new 0 0 500 500;" xml:space="preserve">
<style type="text/css">
	.st0{fill:#FCC11A;}
	.st1{fill:#F9E23A;}
	.st2{fill:#23112D;}
	.st3{fill:#F1064F;}
	.st4{fill:#A0053D;}
	.st5{opacity:0.5;fill:#A0053D;enable-background:new    ;}
	.st6{fill:#381A46;}
	.st7{fill:#49345B;}
	.st8{fill:#F5316C;}
	.st9{fill:#130919;}
</style>
<g id="OBJECTS">
	<g>
		<g>
			<g>
				<g>
					<path class="st0" d="M422.3,305c-6.4,5.6-16.2,5-21.8-1.4c-5.6-6.4-5-16.2,1.4-21.8c6.4-5.6,16.2-5,21.8,1.4
						C429.3,289.6,428.7,299.4,422.3,305z"/>
					<path class="st1" d="M415.1,296.8c2.9,3.3,7.5,4.1,11.3,2.4c2.1-5.3,1.3-11.5-2.7-16.1c-0.8-0.9-1.7-1.7-2.7-2.4
						c-1.8,0.3-3.6,1-5.1,2.3C411.9,286.7,411.5,292.8,415.1,296.8z"/>
					<path class="st2" d="M409.5,301.3c1.8,0.5,3.8,0.2,5.3-1.1c2.3-2,2.5-5.5,0.5-7.8c-2-2.3-5.5-2.5-7.8-0.5
						c-1.9,1.7-2.4,4.3-1.4,6.5c-1,2.1-2.1,5-2.1,8.3c1.2,0.8,2.6,1.3,3.9,1.7C407.8,306.2,408.6,303.6,409.5,301.3z"/>
				</g>
				<g>
					<path class="st3" d="M472.2,208.1c-5.1-4.9-13.4-7.4-24.7-7.4c-14.9,0-31.7,4.5-37,6.6c-11.3,4.6-49.4,21.8-62.4,51.8
						c-0.7,1.6-0.7,3.4-0.1,5s1.9,2.9,3.5,3.6c0.8,0.4,1.7,0.5,2.6,0.5c2.6,0,5-1.6,6-4c11-25.4,45-40.7,55.1-44.8
						c7.2-2.8,20.6-5.6,32.3-5.6c7.6,0,13,1.3,15.5,3.6c0.6,0.6,2.6,2.5,0.5,8.9c-7.8,22.3-40.6,35.6-56.3,42
						c-13.7,5.1-27.6,7.9-42.3,10.8c-3.8,0.7-7.6,1.5-11.5,2.3c-1.7,0.4-3.2,1.4-4.2,2.8c-1,1.5-1.3,3.2-0.9,5
						c0.6,3,3.3,5.2,6.4,5.2h0c0.5,0,0.9,0,1.4-0.1c3.7-0.8,7.4-1.5,11.1-2.2l0.3-0.1c14.6-2.9,29.8-5.9,44.5-11.4l0.2-0.1
						c17.6-7.1,54.1-22,63.9-50C480,218.9,476.1,211.9,472.2,208.1z M354.7,294.2L354.7,294.2L354.7,294.2L354.7,294.2z"/>
					<g>
						<g>
							<g>
								<path class="st4" d="M370.8,291.3c-5.8,0-10.6-4.7-10.8-10.6c0-0.3,0.2-0.5,0.5-0.5c0.3,0,0.5,0.2,0.5,0.5
									c0.1,5.4,4.6,9.7,10,9.7c0,0,0,0,0,0c0.3,0,0.5,0.2,0.5,0.5c0,0.3-0.2,0.5-0.5,0.5C370.9,291.3,370.9,291.3,370.8,291.3z"/>
							</g>
							<g>
								<path class="st4" d="M380.8,289.2c-2.7,0-5.3-1-7.3-2.9c-2.1-2-3.3-4.7-3.4-7.6c0-0.3,0.2-0.5,0.5-0.5c0,0,0,0,0,0
									c0.3,0,0.5,0.2,0.5,0.5c0.1,2.7,1.2,5.1,3.1,7c1.9,1.8,4.4,2.7,7,2.6c0.3,0,0.5,0.2,0.5,0.5c0,0.3-0.2,0.5-0.5,0.5
									C381.1,289.2,380.9,289.2,380.8,289.2z"/>
							</g>
							<g>
								<path class="st4" d="M390.8,286.9c-2.6,0-5.1-0.9-7.1-2.7c-2.1-1.9-3.4-4.6-3.5-7.5c0-0.3,0.2-0.5,0.5-0.5c0,0,0,0,0,0
									c0.3,0,0.5,0.2,0.5,0.5c0.1,2.7,1.2,5.1,3.2,6.9c1.9,1.8,4.5,2.6,7.1,2.4c0.2,0,0.5,0.2,0.5,0.4c0,0.3-0.2,0.5-0.4,0.5
									C391.2,286.9,391,286.9,390.8,286.9z"/>
							</g>
							<g>
								<path class="st4" d="M400.4,284.1c-1,0-2-0.1-3-0.4c-1.3-0.4-2.6-1.1-3.7-2c-2.2-1.8-3.5-4.4-3.7-7.4c0-0.3,0.2-0.5,0.4-0.5
									c0.3,0,0.5,0.2,0.5,0.4c0.2,2.7,1.4,5,3.4,6.7c1,0.8,2.1,1.5,3.3,1.8c1.3,0.4,2.6,0.5,4,0.3c0.3,0,0.5,0.1,0.5,0.4
									c0,0.3-0.2,0.5-0.4,0.5C401.3,284.1,400.8,284.1,400.4,284.1z"/>
							</g>
							<g>
								<path class="st4" d="M410,280.8c-2.3,0-4.5-0.7-6.3-2c-2.2-1.7-3.7-4.3-4.1-7.1c0-0.3,0.1-0.5,0.4-0.5
									c0.2,0,0.5,0.1,0.5,0.4c0.4,2.6,1.7,5,3.8,6.5c2.1,1.5,4.8,2.1,7.5,1.7c0.3-0.1,0.5,0.1,0.5,0.4c0,0.3-0.1,0.5-0.4,0.5
									C411.3,280.7,410.7,280.8,410,280.8z"/>
							</g>
							<g>
								<path class="st4" d="M419.2,276.8c-2,0-3.9-0.5-5.6-1.6c-2.5-1.5-4.1-4-4.8-6.8c-0.1-0.3,0.1-0.5,0.4-0.6
									c0.3-0.1,0.5,0.1,0.6,0.4c0.6,2.6,2.1,4.8,4.3,6.2c2.2,1.4,4.8,1.8,7.4,1.2c0.3-0.1,0.5,0.1,0.6,0.3
									c0.1,0.3-0.1,0.5-0.3,0.6C420.9,276.7,420.1,276.8,419.2,276.8z"/>
							</g>
							<g>
								<path class="st4" d="M428.4,272.5c-1.8,0-3.6-0.5-5.2-1.4c-2.5-1.4-4.3-3.9-5-6.7c-0.1-0.3,0.1-0.5,0.3-0.6
									c0.3-0.1,0.5,0.1,0.6,0.3c0.6,2.6,2.3,4.8,4.5,6.1c2.3,1.3,4.9,1.6,7.4,0.9c0.2-0.1,0.5,0.1,0.6,0.3
									c0.1,0.2-0.1,0.5-0.3,0.6C430.4,272.4,429.4,272.5,428.4,272.5z"/>
							</g>
							<g>
								<path class="st4" d="M437.3,267.7c-1.7,0-3.3-0.4-4.8-1.2c-2.5-1.3-4.4-3.6-5.2-6.4c-0.1-0.2,0.1-0.5,0.3-0.6
									c0.2-0.1,0.5,0.1,0.6,0.3c0.8,2.6,2.5,4.6,4.7,5.8c2.3,1.2,5.1,1.4,7.6,0.5c0.2-0.1,0.5,0,0.6,0.3c0.1,0.2,0,0.5-0.3,0.6
									C439.7,267.5,438.5,267.7,437.3,267.7z"/>
							</g>
							<g>
								<path class="st4" d="M445.7,262.3c-1.4,0-2.8-0.3-4-0.8c-2.5-1.1-4.6-3.3-5.6-6c-0.1-0.2,0-0.5,0.3-0.6
									c0.2-0.1,0.5,0,0.6,0.3c0.9,2.5,2.8,4.5,5.1,5.5c2.4,1.1,5.2,1,7.7-0.1c0.2-0.1,0.5,0,0.6,0.2c0.1,0.2,0,0.5-0.2,0.6
									C448.7,262,447.1,262.3,445.7,262.3z"/>
							</g>
							<g>
								<path class="st4" d="M453.4,256.1c-1,0-2-0.2-3-0.5c-2.6-0.8-4.9-2.8-6.1-5.5c-0.1-0.2,0-0.5,0.2-0.6c0.2-0.1,0.5,0,0.6,0.2
									c1.2,2.4,3.2,4.2,5.6,5c2.5,0.8,5.3,0.5,7.7-1c0.2-0.1,0.5-0.1,0.6,0.2c0.1,0.2,0.1,0.5-0.2,0.6
									C457.1,255.6,455.3,256.1,453.4,256.1z"/>
							</g>
							<g>
								<path class="st4" d="M460.2,249c-0.6,0-1.1-0.1-1.7-0.2c-2.7-0.5-5.1-2.1-6.8-4.7c-0.1-0.2-0.1-0.5,0.1-0.6
									c0.2-0.1,0.5-0.1,0.7,0.1c1.5,2.3,3.7,3.8,6.2,4.3c2.6,0.5,5.4-0.3,7.5-2.2c0.2-0.2,0.5-0.2,0.7,0c0.2,0.2,0.2,0.5,0,0.7
									C464.9,248.1,462.5,249,460.2,249z"/>
							</g>
							<g>
								<path class="st4" d="M465.5,240.8c-2.7,0-5.4-1.2-7.5-3.4c-0.2-0.2-0.2-0.5,0-0.7c0.2-0.2,0.5-0.2,0.7,0
									c1.9,2,4.3,3.1,6.8,3.1c0,0,0,0,0,0c1.3,0,2.5-0.3,3.8-0.9c1.3-0.7,2.4-1.7,3.2-2.8c0.2-0.2,0.4-0.3,0.7-0.1
									c0.2,0.1,0.3,0.4,0.1,0.7c-0.9,1.3-2.1,2.3-3.6,3.1C468.3,240.5,466.9,240.8,465.5,240.8
									C465.5,240.8,465.5,240.8,465.5,240.8z"/>
							</g>
							<g>
								<path class="st4" d="M468.6,231.7c-2,0-4-0.6-5.9-1.9c-0.2-0.1-0.3-0.4-0.1-0.7c0.1-0.2,0.4-0.3,0.7-0.1
									c2.4,1.6,5,2.1,7.3,1.5c1.4-0.4,2.5-1,3.4-1.9c0.5-0.5,1-1.1,1.4-1.7c0.3-0.6,0.7-1.4,1-2.2c0.1-0.2,0.3-0.4,0.6-0.3
									c0.2,0.1,0.4,0.3,0.3,0.6c-0.3,1-0.7,1.8-1,2.5c-0.5,0.7-1,1.3-1.6,1.9c-0.9,1-2.2,1.7-3.8,2.1
									C470.1,231.6,469.4,231.7,468.6,231.7z"/>
							</g>
						</g>
						<g>
							<g>
								<path class="st4" d="M464.6,219.4c-0.2,0-0.4-0.1-0.4-0.3c-0.1-0.2,0.1-0.5,0.3-0.6c1.3-0.4,2.6-0.8,3.6-1.5
									c0.8-0.5,1.8-1.4,2.3-2.8c0.2-0.6,0.3-1.3,0.3-2c0-0.7-0.2-1.4-0.4-2.2c-0.3-0.8-0.7-1.5-1.2-2.2c-0.6-0.8-1.2-1.4-1.9-1.9
									c-0.2-0.2-0.2-0.5-0.1-0.7c0.2-0.2,0.5-0.2,0.7-0.1c0.7,0.6,1.5,1.2,2.1,2.1c0.5,0.7,1,1.5,1.3,2.4c0.3,0.9,0.5,1.6,0.5,2.5
									c0,0.8-0.1,1.6-0.4,2.3c-0.6,1.6-1.8,2.7-2.7,3.3c-1.2,0.8-2.6,1.2-3.9,1.6C464.7,219.4,464.7,219.4,464.6,219.4z"/>
							</g>
							<g>
								<path class="st4" d="M460.5,215.8c-0.1,0-0.2,0-0.2-0.1c-0.2-0.1-0.3-0.4-0.2-0.6c0.8-1.3,1.2-2.5,1.5-3.7
									c0.1-0.6,0.2-1.3,0.2-1.9c0-0.6-0.1-1.2-0.3-1.8c-0.8-2.5-3-4.6-5.9-5.4c-0.2-0.1-0.4-0.3-0.3-0.6c0.1-0.2,0.3-0.4,0.6-0.3
									c3.2,1,5.7,3.3,6.5,6.1c0.2,0.7,0.3,1.4,0.4,2c0,0.7,0,1.4-0.2,2.1c-0.3,1.3-0.8,2.5-1.6,3.9
									C460.8,215.7,460.7,215.8,460.5,215.8z"/>
							</g>
							<g>
								<path class="st4" d="M452.3,214c0,0-0.1,0-0.1,0c-0.3-0.1-0.4-0.3-0.3-0.6c0.7-2.7,0.3-5.3-1-7.4c-1.4-2.2-3.8-3.7-6.6-4.1
									c-0.3,0-0.4-0.3-0.4-0.5c0-0.3,0.3-0.4,0.5-0.4c3,0.4,5.8,2.1,7.3,4.5c1.5,2.3,1.9,5.2,1.1,8.2
									C452.7,213.9,452.5,214,452.3,214z"/>
							</g>
							<g>
								<path class="st4" d="M442.9,213.9C442.8,213.9,442.8,213.9,442.9,213.9c-0.3,0-0.5-0.3-0.5-0.5c0.3-2.7-0.4-5.3-2.1-7.2
									c-1.7-2-4.2-3.2-6.9-3.3c-0.3,0-0.5-0.2-0.5-0.5c0-0.3,0.2-0.5,0.5-0.5c0,0,0,0,0,0c3,0.1,5.8,1.4,7.6,3.7
									c1.8,2.2,2.6,5,2.3,7.9C443.3,213.8,443.1,213.9,442.9,213.9z"/>
							</g>
							<g>
								<path class="st4" d="M433.2,215C433.2,215,433.2,215,433.2,215c-0.3,0-0.5-0.2-0.5-0.5c0-2.7-0.9-5.2-2.7-7
									c-1.8-1.9-4.4-2.9-7.2-2.7c-0.3,0-0.5-0.2-0.5-0.4c0-0.3,0.2-0.5,0.4-0.5c3-0.1,5.9,0.9,7.9,3c2,2,3,4.7,3,7.7
									C433.6,214.8,433.4,215,433.2,215z"/>
							</g>
							<g>
								<path class="st4" d="M423.5,216.9c-0.2,0-0.5-0.2-0.5-0.4c-0.2-2.7-1.4-5.1-3.3-6.7c-2.1-1.8-4.8-2.5-7.5-2
									c-0.3,0-0.5-0.1-0.5-0.4c0-0.3,0.1-0.5,0.4-0.5c3-0.5,6,0.2,8.3,2.2c2.1,1.8,3.4,4.4,3.6,7.4
									C424,216.7,423.8,216.9,423.5,216.9C423.6,216.9,423.6,216.9,423.5,216.9z"/>
							</g>
							<g>
								<path class="st4" d="M414.5,219.7c-0.2,0-0.4-0.2-0.5-0.4c-0.6-2.6-2.1-4.8-4.2-6.2c-2.2-1.4-4.9-1.8-7.6-1.1
									c-0.2,0.1-0.5-0.1-0.6-0.3c-0.1-0.3,0.1-0.5,0.3-0.6c2.9-0.8,5.9-0.3,8.3,1.2c2.4,1.5,4,3.9,4.6,6.8
									c0.1,0.3-0.1,0.5-0.4,0.6C414.6,219.7,414.5,219.7,414.5,219.7z"/>
							</g>
							<g>
								<path class="st4" d="M405.5,223.7c-0.2,0-0.4-0.1-0.5-0.3c-0.7-2.6-2.4-4.7-4.7-5.9c-2.3-1.3-5-1.5-7.6-0.6
									c-0.2,0.1-0.5-0.1-0.6-0.3c-0.1-0.2,0.1-0.5,0.3-0.6c2.9-1,5.9-0.7,8.4,0.7c2.5,1.3,4.3,3.6,5.1,6.5
									c0.1,0.2-0.1,0.5-0.3,0.6C405.6,223.7,405.5,223.7,405.5,223.7z"/>
							</g>
							<g>
								<path class="st4" d="M396.7,228.4c-0.2,0-0.4-0.1-0.4-0.3c-0.9-2.5-2.7-4.5-5-5.6c-2.4-1.1-5.1-1.1-7.6,0
									c-0.2,0.1-0.5,0-0.6-0.3c-0.1-0.2,0-0.5,0.3-0.6c2.8-1.2,5.8-1.2,8.4,0.1c2.6,1.2,4.5,3.4,5.5,6.1c0.1,0.2,0,0.5-0.3,0.6
									C396.8,228.4,396.8,228.4,396.7,228.4z"/>
							</g>
							<g>
								<path class="st4" d="M388.3,233.6c-0.2,0-0.4-0.1-0.4-0.3c-1.1-2.5-3-4.3-5.4-5.2c-1.2-0.4-2.4-0.6-3.8-0.5
									c-1.5,0.1-2.8,0.5-3.9,1.1c-0.2,0.1-0.5,0-0.6-0.2c-0.1-0.2,0-0.5,0.2-0.6c1.2-0.7,2.6-1.1,4.3-1.2c1.5-0.1,2.9,0.1,4.1,0.6
									c2.6,1,4.8,3,6,5.7c0.1,0.2,0,0.5-0.2,0.6C388.4,233.6,388.4,233.6,388.3,233.6z"/>
							</g>
							<g>
								<path class="st4" d="M380.4,239.4c-0.2,0-0.3-0.1-0.4-0.2c-1.3-2.4-3.4-4-5.9-4.7c-1.2-0.3-2.4-0.4-3.8-0.2
									c-1.5,0.3-2.8,0.8-3.8,1.5c-0.2,0.1-0.5,0.1-0.7-0.1c-0.2-0.2-0.1-0.5,0.1-0.7c1.1-0.8,2.5-1.4,4.2-1.6
									c1.5-0.2,2.9-0.2,4.2,0.2c2.7,0.8,5,2.6,6.4,5.2c0.1,0.2,0,0.5-0.2,0.6C380.5,239.4,380.5,239.4,380.4,239.4z"/>
							</g>
							<g>
								<path class="st4" d="M373.1,245.8c-0.1,0-0.3-0.1-0.4-0.2c-1.6-2.2-3.8-3.7-6.3-4.1c-1.2-0.2-2.5-0.1-3.8,0.2
									c-1.4,0.4-2.6,1-3.6,2c-0.2,0.2-0.5,0.2-0.7,0c-0.2-0.2-0.2-0.5,0-0.7c1.1-1,2.4-1.7,4-2.2c1.4-0.4,2.8-0.5,4.2-0.3
									c2.8,0.5,5.2,2.1,6.9,4.5c0.1,0.2,0.1,0.5-0.1,0.7C373.3,245.8,373.2,245.8,373.1,245.8z"/>
							</g>
							<g>
								<path class="st4" d="M352.2,253c-0.1,0-0.2,0-0.3-0.1c-0.2-0.2-0.2-0.5-0.1-0.7c0.5-0.6,1.1-1.2,1.7-1.6
									c0.6-0.5,1.3-0.9,2-1.1c1.4-0.6,2.7-0.9,4.1-0.9c2.7,0.1,5.5,1.4,7.5,3.6c0.2,0.2,0.2,0.5,0,0.7c-0.2,0.2-0.5,0.2-0.7,0
									c-1.8-2-4.3-3.2-6.8-3.2c-1.3,0-2.5,0.2-3.7,0.8c-0.6,0.3-1.2,0.6-1.8,1c-0.6,0.4-1.1,1-1.6,1.5
									C352.5,252.9,352.3,253,352.2,253z"/>
							</g>
						</g>
					</g>
					<path class="st5" d="M421.9,204c-6,9-14.7,16.5-22.5,22.1c-12.5,8.9-28.2,16.7-45.7,22.9c-2.1,3.2-4,6.6-5.6,10.1
						c-0.7,1.6-0.7,3.4-0.1,5c0.1,0.3,0.3,0.6,0.5,0.9c4.6-1.4,9.1-2.9,13.5-4.4c12.5-23.2,43.7-37.3,53.3-41.1
						c4.5-1.7,11.5-3.5,18.9-4.6c3.7-4.6,6.6-9.3,8.7-14.1C435.5,201.3,427.9,202.6,421.9,204z"/>
				</g>
			</g>
			<g>
				<g>
					<path class="st0" d="M442,239c-7.4,4.2-16.9,1.7-21.1-5.8c-4.2-7.4-1.7-16.9,5.8-21.1c7.4-4.2,16.9-1.7,21.1,5.8
						C452,225.3,449.4,234.8,442,239z"/>
					<path class="st1" d="M436.6,229.6c2.2,3.8,6.5,5.6,10.6,4.7c3.2-4.7,3.6-11,0.6-16.3c-0.6-1.1-1.3-2-2.1-2.9
						c-1.8-0.1-3.7,0.3-5.4,1.3C435.6,219,434,224.9,436.6,229.6z"/>
					<path class="st2" d="M430.3,232.8c1.6,0.9,3.7,0.9,5.4-0.1c2.7-1.5,3.6-4.9,2.1-7.6c-1.5-2.7-4.9-3.6-7.6-2.1
						c-2.2,1.2-3.2,3.8-2.6,6.1c-1.4,1.8-3,4.4-3.7,7.7c1.1,1,2.2,1.8,3.5,2.5C427.6,237.3,428.9,234.9,430.3,232.8z"/>
				</g>
				<g>
					<path class="st3" d="M443.5,179.1c-0.3-24.7-14.6-32.1-23.2-34.4c-3.3-0.9-7.1-1.3-11.2-1.3c-12.5,0-27,4.1-42.8,12.3
						c-18.6,9.5-34.2,22.3-40.7,33.4c-0.9,1.5-1.1,3.3-0.7,5c0.4,1.7,1.5,3.1,3,4c1,0.6,2.2,0.9,3.3,0.9c2.3,0,4.5-1.2,5.7-3.2
						c5.2-8.8,19.4-20.2,35.4-28.4c13.6-7,26.8-10.8,37-10.8c2.8,0,5.4,0.3,7.7,0.9c3.2,0.9,13.1,3.5,13.4,21.9
						c0.4,19.5-11.7,35.4-22,45.2c-14,13.5-33.4,24.6-54.6,31.1c-1.7,0.5-3.1,1.7-3.9,3.2c-0.8,1.6-1,3.3-0.5,5
						c0.9,2.8,3.4,4.6,6.3,4.6c0.7,0,1.3-0.1,1.9-0.3c23.1-7.2,44.4-19.3,59.9-34.3C434.9,217.2,443.9,198.2,443.5,179.1z"/>
					<g>
						<g>
							<g>
								<path class="st4" d="M369.5,263.4c-2.1,0-4.1-0.7-5.8-2c-2.2-1.7-3.7-4.2-4.2-7c0-0.3,0.1-0.5,0.4-0.6
									c0.3,0,0.5,0.1,0.5,0.4c0.5,2.6,1.9,4.9,3.9,6.5c2,1.5,4.5,2.1,6.9,1.6c0.2-0.1,0.5,0.1,0.6,0.4c0.1,0.3-0.1,0.5-0.4,0.6
									C370.7,263.3,370.1,263.4,369.5,263.4z"/>
							</g>
							<g>
								<path class="st4" d="M377.9,259.5c-1.9,0-3.7-0.6-5.4-1.7c-2.3-1.5-3.9-3.9-4.6-6.8c-0.1-0.3,0.1-0.5,0.3-0.6
									c0.3-0.1,0.5,0.1,0.6,0.3c0.6,2.6,2.1,4.8,4.2,6.2c2.1,1.4,4.7,1.9,7,1.2c0.3-0.1,0.5,0.1,0.6,0.3c0.1,0.2-0.1,0.5-0.3,0.6
									C379.5,259.4,378.7,259.5,377.9,259.5z"/>
							</g>
							<g>
								<path class="st4" d="M386.1,255.2c-1.7,0-3.4-0.5-4.9-1.4c-2.4-1.4-4.1-3.7-5-6.5c-0.1-0.2,0.1-0.5,0.3-0.6
									c0.3-0.1,0.5,0.1,0.6,0.3c0.8,2.5,2.5,4.7,4.6,5.9c2.2,1.3,4.8,1.6,7.1,0.8c0.3-0.1,0.5,0.1,0.6,0.3c0.1,0.2,0,0.5-0.3,0.6
									C388.1,255,387.1,255.2,386.1,255.2z"/>
							</g>
							<g>
								<path class="st4" d="M393.9,250.3c-1.5,0-3-0.4-4.4-1.1c-2.4-1.2-4.4-3.4-5.4-6.1c-0.1-0.2,0-0.5,0.3-0.6
									c0.2-0.1,0.5,0,0.6,0.3c1,2.5,2.7,4.5,5,5.6c2.2,1.2,4.8,1.3,7.1,0.4c0.2-0.1,0.5,0,0.6,0.3c0.1,0.2,0,0.5-0.3,0.6
									C396.3,250.1,395.1,250.3,393.9,250.3z"/>
							</g>
							<g>
								<path class="st4" d="M401.4,245c-1.3,0-2.6-0.3-3.8-0.8c-2.5-1.1-4.6-3.1-5.8-5.8c-0.1-0.2,0-0.5,0.2-0.6
									c0.2-0.1,0.5,0,0.6,0.2c1.1,2.4,3,4.3,5.3,5.3c1.1,0.5,2.3,0.7,3.5,0.7c1.3,0,2.5-0.3,3.6-0.9c0.2-0.1,0.5,0,0.6,0.2
									s0,0.5-0.2,0.6c-1.2,0.6-2.5,0.9-4,1C401.5,245,401.5,245,401.4,245z"/>
							</g>
							<g>
								<path class="st4" d="M408.5,239.1c-1.1,0-2.1-0.2-3.2-0.5c-2.5-0.9-4.8-2.8-6.2-5.4c-0.1-0.2,0-0.5,0.2-0.6
									c0.2-0.1,0.5,0,0.6,0.2c1.3,2.3,3.4,4.1,5.7,4.9c2.4,0.8,5,0.6,7.1-0.7c0.2-0.1,0.5-0.1,0.6,0.2c0.1,0.2,0.1,0.5-0.2,0.6
									C411.8,238.6,410.2,239.1,408.5,239.1z"/>
							</g>
							<g>
								<path class="st4" d="M415,232.6c-0.8,0-1.6-0.1-2.4-0.3c-2.6-0.7-5-2.4-6.6-4.8c-0.1-0.2-0.1-0.5,0.1-0.7
									c0.2-0.1,0.5-0.1,0.7,0.1c1.5,2.3,3.6,3.8,6,4.5c2.5,0.6,5,0.2,7.1-1.3c0.2-0.1,0.5-0.1,0.7,0.1c0.1,0.2,0.1,0.5-0.1,0.7
									C418.9,232,416.9,232.6,415,232.6z"/>
							</g>
							<g>
								<path class="st4" d="M420.9,225.6c-0.5,0-1,0-1.5-0.1c-2.7-0.4-5.2-2-7-4.3c-0.2-0.2-0.1-0.5,0.1-0.7
									c0.2-0.2,0.5-0.1,0.7,0.1c1.7,2.1,4,3.5,6.4,3.9c2.6,0.4,5.1-0.3,6.9-2c0.2-0.2,0.5-0.2,0.7,0c0.2,0.2,0.2,0.5,0,0.7
									C425.4,224.8,423.2,225.6,420.9,225.6z"/>
							</g>
							<g>
								<path class="st4" d="M426,218c-0.2,0-0.4,0-0.6,0c-2.7-0.1-5.3-1.4-7.4-3.5c-0.2-0.2-0.2-0.5,0-0.7c0.2-0.2,0.5-0.2,0.7,0
									c1.9,2,4.3,3.1,6.8,3.2c2.5,0.2,5-0.8,6.7-2.7c0.2-0.2,0.5-0.2,0.7,0c0.2,0.2,0.2,0.5,0,0.7C431.1,216.9,428.6,218,426,218z
									"/>
							</g>
							<g>
								<path class="st4" d="M430,209.9c-2.5,0-5-0.9-7.1-2.6c-0.2-0.2-0.2-0.5-0.1-0.7c0.2-0.2,0.5-0.2,0.7-0.1
									c2.1,1.7,4.7,2.6,7.1,2.4c2.6-0.2,4.9-1.5,6.3-3.6c0.1-0.2,0.4-0.3,0.7-0.1c0.2,0.1,0.3,0.4,0.1,0.7c-1.6,2.4-4.1,3.8-7,4
									C430.5,209.9,430.3,209.9,430,209.9z"/>
							</g>
							<g>
								<path class="st4" d="M432.8,201.4c-2,0-4.1-0.6-6-1.7c-0.2-0.1-0.3-0.4-0.2-0.6c0.1-0.2,0.4-0.3,0.6-0.2
									c2.4,1.4,5,1.9,7.4,1.4c1.2-0.2,2.3-0.8,3.3-1.5c0.5-0.4,1-0.8,1.4-1.3c0.4-0.5,0.7-1,1-1.7c0.1-0.2,0.4-0.3,0.6-0.2
									c0.2,0.1,0.3,0.4,0.2,0.6c-0.3,0.7-0.7,1.3-1.1,1.9c-0.5,0.6-1,1.1-1.5,1.5c-1.1,0.9-2.4,1.4-3.7,1.7
									C434.2,201.3,433.5,201.4,432.8,201.4z"/>
							</g>
							<g>
								<path class="st4" d="M434,192.5c-1.5,0-3-0.3-4.5-0.9c-0.2-0.1-0.4-0.4-0.3-0.6c0.1-0.2,0.4-0.4,0.6-0.3
									c2.6,1,5.2,1.1,7.5,0.2c2.4-0.9,4.2-2.9,4.9-5.5c0.1-0.2,0.3-0.4,0.6-0.3c0.2,0.1,0.4,0.3,0.3,0.6c-0.8,2.8-2.8,5.1-5.5,6.1
									C436.5,192.3,435.3,192.5,434,192.5z"/>
							</g>
							<g>
								<path class="st4" d="M433.4,183.6c-0.9,0-1.7-0.1-2.6-0.3c-0.3-0.1-0.4-0.3-0.4-0.6c0.1-0.3,0.3-0.4,0.6-0.4
									c2.7,0.6,5.4,0.2,7.4-1.1c1-0.6,2-1.5,2.6-2.6c0.7-1.2,1.2-2.4,1.2-3.6c0-0.3,0.3-0.5,0.5-0.4c0.3,0,0.5,0.2,0.4,0.5
									c-0.1,1.4-0.6,2.7-1.4,4.1c-0.8,1.2-1.8,2.2-2.9,2.9C437.4,183.1,435.5,183.6,433.4,183.6z"/>
							</g>
						</g>
						<g>
							<g>
								<path class="st4" d="M429.9,170.9c-0.2,0-0.4-0.2-0.5-0.4c0-0.3,0.2-0.5,0.4-0.5c2.9-0.3,5.2-1.4,6.7-3.2
									c0.8-0.9,1.3-2.1,1.6-3.4c0.1-0.6,0.1-1.3,0.1-2c0-0.6-0.2-1.3-0.5-2.1c-0.1-0.2,0.1-0.5,0.3-0.6c0.3-0.1,0.5,0.1,0.6,0.3
									c0.3,0.9,0.5,1.7,0.5,2.4c0.1,0.8,0,1.5-0.1,2.3c-0.3,1.5-0.9,2.8-1.8,3.8C435.7,169.3,433.1,170.5,429.9,170.9
									C430,170.9,429.9,170.9,429.9,170.9z"/>
							</g>
							<g>
								<path class="st4" d="M427.1,164.1c-0.2,0-0.3-0.1-0.4-0.3c-0.1-0.2,0-0.5,0.2-0.6c1.9-0.9,4.4-2.6,5.2-5.3
									c0.4-1.1,0.4-2.4,0.1-3.8c-0.2-0.7-0.4-1.3-0.8-1.9c-0.4-0.7-0.9-1.3-1.4-1.8c-0.2-0.2-0.2-0.5,0-0.7c0.2-0.2,0.5-0.2,0.7,0
									c0.5,0.6,1,1.2,1.5,2c0.4,0.7,0.7,1.4,0.9,2.2c0.4,1.6,0.3,3-0.2,4.3c-1,3-3.6,4.9-5.7,5.9
									C427.2,164.1,427.1,164.1,427.1,164.1z"/>
							</g>
							<g>
								<path class="st4" d="M422.2,159.4c-0.1,0-0.2,0-0.3-0.1c-0.2-0.2-0.2-0.5-0.1-0.7c1.9-2.4,2.7-4.8,2.5-7.1
									c-0.3-2.5-2.1-4.9-4.7-6c-0.2-0.1-0.4-0.4-0.2-0.6c0.1-0.2,0.4-0.4,0.6-0.2c2.9,1.2,4.9,3.9,5.3,6.8
									c0.3,2.5-0.6,5.1-2.7,7.7C422.5,159.3,422.3,159.4,422.2,159.4z"/>
							</g>
							<g>
								<path class="st4" d="M415.4,156.9c0,0-0.1,0-0.1,0c-0.2-0.1-0.4-0.4-0.3-0.6c0.9-2.7,0.9-5.4-0.1-7.5c-1.1-2.3-3.3-4-6-4.4
									c-0.3,0-0.4-0.3-0.4-0.5s0.3-0.4,0.5-0.4c3,0.5,5.5,2.3,6.7,4.9c1.1,2.3,1.2,5.2,0.2,8.2
									C415.8,156.8,415.6,156.9,415.4,156.9z"/>
							</g>
							<g>
								<path class="st4" d="M407.4,156.4C407.4,156.4,407.4,156.4,407.4,156.4c-0.3,0-0.5-0.3-0.5-0.5c0.3-2.8-0.4-5.4-1.8-7.3
									c-1.5-2-4-3.2-6.5-3.2c-0.3,0-0.5-0.2-0.5-0.5s0.2-0.5,0.5-0.5c2.8,0,5.5,1.4,7.3,3.6c1.6,2.1,2.3,4.9,2,7.9
									C407.8,156.2,407.6,156.4,407.4,156.4z"/>
							</g>
							<g>
								<path class="st4" d="M399,157.5c-0.3,0-0.5-0.2-0.5-0.4c-0.1-2.7-1.1-5.2-2.9-6.9c-1.8-1.8-4.3-2.7-6.8-2.4
									c-0.3,0-0.5-0.2-0.5-0.4c0-0.3,0.2-0.5,0.4-0.5c2.8-0.3,5.5,0.7,7.5,2.7c1.9,1.9,3,4.6,3.2,7.6
									C399.4,157.2,399.2,157.5,399,157.5C399,157.5,399,157.5,399,157.5z"/>
							</g>
							<g>
								<path class="st4" d="M390.5,159.7c-0.2,0-0.4-0.2-0.5-0.4c-0.4-2.7-1.7-5-3.6-6.6c-2-1.6-4.5-2.3-6.9-1.8
									c-0.3,0-0.5-0.1-0.6-0.4c0-0.3,0.1-0.5,0.4-0.6c2.7-0.5,5.5,0.2,7.7,2c2.1,1.7,3.5,4.3,3.9,7.2
									C391,159.4,390.8,159.6,390.5,159.7C390.5,159.7,390.5,159.7,390.5,159.7z"/>
							</g>
							<g>
								<path class="st4" d="M382.1,162.7c-0.2,0-0.4-0.1-0.5-0.4c-0.6-2.6-2.1-4.9-4.1-6.3c-2.1-1.4-4.7-1.9-7-1.3
									c-0.3,0.1-0.5-0.1-0.6-0.3c-0.1-0.3,0.1-0.5,0.3-0.6c2.6-0.7,5.5-0.2,7.8,1.4c2.2,1.5,3.9,4,4.5,6.8
									c0.1,0.3-0.1,0.5-0.4,0.6C382.1,162.7,382.1,162.7,382.1,162.7z"/>
							</g>
							<g>
								<path class="st4" d="M373.9,166.4c-0.2,0-0.4-0.1-0.4-0.3c-0.8-2.6-2.4-4.7-4.6-6c-2.2-1.3-4.8-1.6-7.1-0.8
									c-0.2,0.1-0.5-0.1-0.6-0.3c-0.1-0.2,0-0.5,0.3-0.6c2.6-0.9,5.5-0.6,7.9,0.9c2.4,1.4,4.1,3.7,5,6.5c0.1,0.2-0.1,0.5-0.3,0.6
									C374,166.4,373.9,166.4,373.9,166.4z"/>
							</g>
							<g>
								<path class="st4" d="M365.9,170.6c-0.2,0-0.4-0.1-0.4-0.3c-1-2.5-2.7-4.5-5-5.6c-2.3-1.1-4.9-1.3-7.1-0.3
									c-0.2,0.1-0.5,0-0.6-0.3c-0.1-0.2,0-0.5,0.3-0.6c2.5-1,5.4-0.9,7.9,0.3c2.4,1.2,4.4,3.4,5.4,6.1c0.1,0.2,0,0.5-0.3,0.6
									C366,170.6,366,170.6,365.9,170.6z"/>
							</g>
							<g>
								<path class="st4" d="M358.3,175.4c-0.2,0-0.3-0.1-0.4-0.3c-1.1-2.4-3-4.3-5.3-5.3c-2.3-1-4.9-0.9-7.2,0.2
									c-0.2,0.1-0.5,0-0.6-0.2c-0.1-0.2,0-0.5,0.2-0.6c2.5-1.2,5.4-1.3,7.9-0.2c2.5,1,4.6,3.1,5.8,5.8c0.1,0.2,0,0.5-0.2,0.6
									C358.4,175.4,358.3,175.4,358.3,175.4z"/>
							</g>
							<g>
								<path class="st4" d="M351,180.7c-0.2,0-0.3-0.1-0.4-0.2c-1.3-2.4-3.4-4.1-5.7-4.9c-2.4-0.8-5-0.5-7.1,0.8
									c-0.2,0.1-0.5,0.1-0.6-0.1c-0.1-0.2-0.1-0.5,0.1-0.6c2.4-1.5,5.3-1.8,7.9-0.9c2.6,0.8,4.8,2.7,6.2,5.3
									c0.1,0.2,0,0.5-0.2,0.6C351.2,180.7,351.1,180.7,351,180.7z"/>
							</g>
							<g>
								<path class="st4" d="M344.3,186.5c-0.1,0-0.3-0.1-0.4-0.2c-1.6-2.2-3.8-3.8-6.2-4.3c-2.5-0.5-5.1,0.1-7.1,1.8
									c-0.2,0.2-0.5,0.1-0.7-0.1c-0.2-0.2-0.1-0.5,0.1-0.7c2.2-1.9,5.1-2.6,7.9-2c2.6,0.6,5,2.2,6.7,4.7c0.1,0.2,0.1,0.5-0.1,0.7
									C344.5,186.5,344.4,186.5,344.3,186.5z"/>
							</g>
						</g>
					</g>
				</g>
			</g>
			<g>
				<g>
					<path class="st0" d="M399.1,376.7c-8-2.9-16.9,1.2-19.8,9.3c-2.9,8,1.2,16.9,9.3,19.8c8,2.9,16.9-1.2,19.8-9.3
						C411.3,388.5,407.2,379.6,399.1,376.7z"/>
					<path class="st1" d="M395.4,387c1.5-4.1,5.5-6.6,9.6-6.4c3.9,4.1,5.4,10.2,3.4,16c-0.4,1.1-1,2.2-1.6,3.2
						c-1.8,0.4-3.7,0.4-5.6-0.3C396.2,397.6,393.6,392,395.4,387z"/>
					<path class="st2" d="M388.6,384.8c1.5-1.1,3.4-1.5,5.3-0.9c2.9,1,4.4,4.2,3.3,7.1c-1,2.9-4.2,4.4-7.1,3.3
						c-2.4-0.9-3.8-3.2-3.6-5.5c-1.7-1.6-3.7-3.9-4.9-7c0.9-1.2,1.9-2.2,3-3C385.2,380.9,386.9,383.1,388.6,384.8z"/>
				</g>
				<g>
					<path class="st3" d="M431.9,381.2c-11-5.9-18.6-5.2-22.6,0.1c-4,5.2-0.4,13.6,6.8,20.1c7.8,7.1,19.2,19.6,22.8,25.3
						c0,0,9-0.7,17.5-11.9c8.5-11.2,6.8-16.3,6.8-16.3S442.4,386.8,431.9,381.2z"/>
					<g>
						<path class="st4" d="M430.2,406.7c-0.4-0.3-0.9,0.3-0.5,0.6c6.7,4.2,12.1,10.1,16.6,16.6c0.2-0.1,0.4-0.2,0.6-0.4
							C442.4,417,436.9,411,430.2,406.7z"/>
						<path class="st4" d="M440.2,402c-0.4-0.2-0.9,0.3-0.5,0.6c5.9,3.5,11.8,7.2,17,11.7c0.2-0.2,0.3-0.4,0.4-0.6
							C452,409.2,446.1,405.5,440.2,402z"/>
						<path class="st4" d="M439.2,396.6c-0.4-0.2-0.7,0.5-0.3,0.7c7.2,3.7,14.3,7.8,20.8,12.7c0.1-0.2,0.3-0.4,0.4-0.6
							C453.6,404.4,446.5,400.4,439.2,396.6z"/>
						<path class="st4" d="M437,411c4.2,3.5,8.3,7.2,12.1,11.1c0.2-0.1,0.4-0.3,0.6-0.5c-3.9-4-8-7.7-12.2-11.2
							C437.1,410.1,436.6,410.7,437,411z"/>
						<path class="st4" d="M452,402.6c3.1,1.5,6.2,3,9.2,4.8c0.1-0.2,0.2-0.5,0.3-0.7c-3-1.8-6.1-3.3-9.2-4.8
							C451.8,401.7,451.5,402.4,452,402.6z"/>
						<path class="st4" d="M435.9,391.5c9.2,3.2,18.4,7,26.8,11.9c0.1-0.3,0.1-0.5,0.2-0.7c-8.4-4.9-17.6-8.6-26.7-11.9
							C435.8,390.7,435.5,391.3,435.9,391.5z"/>
						<path class="st4" d="M446,414.2c2,1.8,4.1,3.7,6,5.6c0.2-0.2,0.4-0.3,0.5-0.5c-2-1.9-4-3.8-6.1-5.6
							C446.1,413.2,445.6,413.8,446,414.2z"/>
						<g>
							<g>
								<path class="st4" d="M409.3,386c0.9,5,5.3,8.4,8.9,11.6c0.3,0.2,0.6-0.2,0.3-0.4c-3.5-3.1-7.8-6.4-8.7-11.2
									C409.8,385.6,409.2,385.7,409.3,386L409.3,386z"/>
							</g>
							<g>
								<path class="st4" d="M412.4,385.7c2,3,4.9,5.1,7.7,7.2c3.5,2.7,7.2,5.1,10.9,7.6c0.3,0.2,0.6-0.2,0.3-0.4
									c-3.4-2.3-6.8-4.5-10-6.9c-3.1-2.3-6.4-4.5-8.5-7.8C412.6,385.1,412.2,385.4,412.4,385.7L412.4,385.7z"/>
							</g>
							<g>
								<path class="st4" d="M416,384.9c3.2,2.1,6.5,4.2,9.7,6.3c0.3,0.2,0.6-0.2,0.3-0.4c-3.2-2.1-6.5-4.2-9.7-6.3
									C416.1,384.3,415.7,384.7,416,384.9L416,384.9z"/>
							</g>
							<g>
								<path class="st4" d="M415.2,382.3c5.2,0.4,9.8,3.3,14.4,5.5c0.3,0.2,0.5-0.4,0.2-0.5c-4.6-2.3-9.3-5.2-14.6-5.5
									C414.9,381.7,414.8,382.3,415.2,382.3L415.2,382.3z"/>
							</g>
							<g>
								<path class="st4" d="M415.3,379.5c3.1-1.4,6.5,0.4,9.4,1.5c0.3,0.1,0.5-0.4,0.2-0.5c-3-1.2-6.6-3-9.8-1.5
									C414.7,379.2,414.9,379.7,415.3,379.5L415.3,379.5z"/>
							</g>
							<g>
								<path class="st4" d="M415.6,380.3c1.8,0.4,3.7,0.2,5.5,0.8c0.3,0.1,0.5-0.4,0.2-0.5c-1.8-0.7-3.8-0.4-5.7-0.9
									C415.4,379.7,415.3,380.3,415.6,380.3L415.6,380.3z"/>
							</g>
							<g>
								<path class="st4" d="M412.5,383.4c1.8,3,5,4.4,7.9,6.2c0.3,0.2,0.6-0.3,0.3-0.4c-2.8-1.7-6-3.1-7.8-6.1
									C412.7,382.8,412.3,383.1,412.5,383.4L412.5,383.4z"/>
							</g>
							<g>
								<path class="st4" d="M409,388.3c1.1,4.8,4.6,8,8.3,11c0.3,0.2,0.6-0.2,0.3-0.4c-3.6-2.9-7-6-8.1-10.7
									C409.4,387.9,408.9,388,409,388.3L409,388.3z"/>
							</g>
						</g>
					</g>
					<path class="st4" d="M415.6,375c2.7,2.1,2.6,6.8-0.2,10.5c-2.8,3.7-7.3,5-10,3s-2.6-6.8,0.2-10.5
						C408.3,374.3,412.8,372.9,415.6,375z"/>
				</g>
				<g>
					<path class="st3" d="M412.3,377.4c-0.6-1.7-1.8-3-3.4-3.8c-31.1-15-47.4-32.1-58.4-60.9c-7.8-21.6-8.2-45.6-1-71.5
						c1-3.5-1.1-7.1-4.6-8.1c-0.6-0.2-1.2-0.2-1.8-0.2c-2.9,0-5.6,2-6.3,4.8c-7.9,28.6-7.4,55.4,1.4,79.6c12.2,32,31,51.8,65,68.2
						c0.9,0.4,1.9,0.7,2.9,0.7c2.5,0,4.8-1.5,5.9-3.7C412.8,380.8,412.9,379,412.3,377.4z"/>
					<g>
						<g>
							<path class="st4" d="M396,381.6c-0.1,0-0.2,0-0.3-0.1c-0.2-0.2-0.2-0.5-0.1-0.7c1.7-2,2.3-4.6,1.8-7.3
								c-0.5-2.8-2-5.3-4.2-7.1c-0.2-0.2-0.2-0.5-0.1-0.7c0.2-0.2,0.5-0.2,0.7-0.1c2.3,1.9,3.9,4.7,4.5,7.7c0.5,3-0.2,5.9-2,8.1
								C396.2,381.5,396.1,381.6,396,381.6z"/>
						</g>
						<g>
							<path class="st4" d="M407.1,387.8c-0.1,0-0.2,0-0.3-0.1c-0.2-0.2-0.2-0.5-0.1-0.7c1.7-2,2.3-4.6,1.8-7.3
								c-0.5-2.8-2-5.3-4.2-7.1c-0.2-0.2-0.2-0.5-0.1-0.7c0.2-0.2,0.5-0.2,0.7-0.1c2.3,1.9,3.9,4.7,4.5,7.7c0.5,3-0.2,5.9-2,8.1
								C407.4,387.7,407.2,387.8,407.1,387.8z"/>
						</g>
						<g>
							<path class="st4" d="M385.3,375.4c-0.1,0-0.2,0-0.3-0.1c-0.2-0.2-0.2-0.5,0-0.7c1.8-1.8,2.6-4.4,2.4-7.2
								c-0.3-2.8-1.5-5.5-3.5-7.4c-0.2-0.2-0.2-0.5,0-0.7c0.2-0.2,0.5-0.2,0.7,0c2.1,2.1,3.5,4.9,3.8,8c0.3,3.1-0.7,5.9-2.7,7.9
								C385.5,375.3,385.4,375.4,385.3,375.4z"/>
						</g>
						<g>
							<path class="st4" d="M375.1,368.2c-0.1,0-0.3-0.1-0.4-0.2c-0.2-0.2-0.1-0.5,0.1-0.7c2-1.6,3-4.1,3.1-6.9c0-1.4-0.2-2.8-0.6-4
								c-0.2-0.7-0.5-1.3-0.8-1.9c-0.3-0.6-0.7-1.2-1.2-1.8c-0.1-0.2-0.1-0.5,0.1-0.7c0.2-0.1,0.5-0.1,0.7,0.1
								c0.5,0.7,0.9,1.3,1.2,1.9c0.4,0.7,0.7,1.4,0.9,2.1c0.4,1.3,0.7,2.8,0.7,4.3c0,3.1-1.2,5.8-3.4,7.6
								C375.3,368.2,375.2,368.2,375.1,368.2z"/>
						</g>
						<g>
							<path class="st4" d="M365.6,359.9c-0.2,0-0.3-0.1-0.4-0.2c-0.1-0.2-0.1-0.5,0.1-0.7c2.1-1.4,3.5-3.7,3.8-6.5
								c0.2-1.4,0.1-2.7-0.1-4.1c-0.1-0.7-0.4-1.3-0.6-2c-0.3-0.8-0.6-1.4-0.9-2c-0.1-0.2-0.1-0.5,0.2-0.6c0.2-0.1,0.5-0.1,0.6,0.2
								c0.4,0.6,0.7,1.3,1,2.1c0.3,0.7,0.5,1.4,0.7,2.1c0.3,1.4,0.4,2.9,0.2,4.4c-0.4,3.1-1.9,5.6-4.2,7.2
								C365.8,359.9,365.7,359.9,365.6,359.9z"/>
						</g>
						<g>
							<path class="st4" d="M357.1,350.6c-0.2,0-0.3-0.1-0.4-0.3c-0.1-0.2,0-0.5,0.2-0.6c1.2-0.6,2.2-1.4,3-2.5
								c0.7-1,1.3-2.2,1.6-3.5c0.7-2.6,0.4-5.4-0.7-8.2c-0.1-0.2,0-0.5,0.3-0.6c0.2-0.1,0.5,0,0.6,0.3c1.2,3,1.5,6,0.8,8.8
								c-0.4,1.5-1,2.7-1.8,3.8c-0.9,1.2-2,2.1-3.3,2.8C357.3,350.6,357.2,350.6,357.1,350.6z"/>
						</g>
						<g>
							<path class="st4" d="M349.9,340.3c-0.2,0-0.4-0.1-0.4-0.3c-0.1-0.2,0-0.5,0.3-0.6c2.4-0.8,4.3-2.8,5.3-5.4
								c0.5-1.3,0.7-2.6,0.8-3.9c0-1.6-0.2-3-0.6-4.3c-0.1-0.2,0.1-0.5,0.3-0.6c0.2-0.1,0.5,0,0.6,0.3c0.5,1.4,0.7,2.9,0.6,4.6
								c0,1.5-0.3,2.9-0.8,4.3c-1.1,2.9-3.2,5-5.9,6C350,340.3,349.9,340.3,349.9,340.3z"/>
						</g>
						<g>
							<path class="st4" d="M343.8,329.3c-0.2,0-0.4-0.1-0.5-0.4c-0.1-0.3,0.1-0.5,0.3-0.6c2.5-0.6,4.6-2.3,5.8-4.9
								c0.6-1.2,1-2.5,1.1-3.9c0.2-1.6,0.1-3-0.2-4.3c-0.1-0.3,0.1-0.5,0.4-0.6c0.3-0.1,0.5,0.1,0.6,0.4c0.3,1.4,0.4,2.9,0.2,4.6
								c-0.2,1.5-0.6,2.9-1.2,4.2c-1.4,2.8-3.7,4.7-6.5,5.3C343.9,329.3,343.9,329.3,343.8,329.3z"/>
						</g>
						<g>
							<path class="st4" d="M338.9,317.9c-0.2,0-0.4-0.2-0.5-0.4c0-0.3,0.1-0.5,0.4-0.5c3.2-0.5,5.2-2.6,6.3-4.3
								c0.7-1.1,1.2-2.4,1.5-3.7c0.4-1.4,0.5-2.9,0.3-4.3c0-0.3,0.2-0.5,0.4-0.5c0.3,0,0.5,0.2,0.5,0.4c0.2,1.5,0.1,3.1-0.3,4.6
								c-0.3,1.4-0.9,2.8-1.7,4C344.2,315.8,341.8,317.4,338.9,317.9C339,317.9,338.9,317.9,338.9,317.9z"/>
						</g>
						<g>
							<path class="st4" d="M335.3,305.8c-0.3,0-0.5-0.2-0.5-0.5c0-0.3,0.2-0.5,0.5-0.5c2.5-0.1,4.9-1.3,6.7-3.5
								c0.8-1.1,1.5-2.3,2-3.5c0.4-1.2,0.7-2.6,0.7-4.2c0-0.3,0.2-0.4,0.5-0.5c0.3,0,0.5,0.2,0.5,0.5c-0.1,1.7-0.3,3.2-0.8,4.5
								c-0.5,1.3-1.2,2.6-2.1,3.8C340.7,304.4,338.1,305.7,335.3,305.8C335.3,305.8,335.3,305.8,335.3,305.8z"/>
						</g>
						<g>
							<path class="st4" d="M333.7,293.5c-0.2,0-0.5,0-0.7,0c-0.3,0-0.5-0.2-0.4-0.5c0-0.3,0.3-0.5,0.5-0.4c2.5,0.2,5-0.8,7-2.8
								c1-0.9,1.7-2.1,2.3-3.3c0.7-1.4,1.1-2.8,1.2-4.1c0-0.3,0.3-0.4,0.5-0.4c0.3,0,0.4,0.3,0.4,0.5c-0.1,1.5-0.6,3-1.3,4.4
								c-0.6,1.3-1.5,2.5-2.5,3.6C338.6,292.5,336.2,293.5,333.7,293.5z"/>
						</g>
						<g>
							<path class="st4" d="M333.6,281.2c-0.6,0-1.1-0.1-1.7-0.2c-0.3,0-0.4-0.3-0.4-0.5c0-0.3,0.3-0.4,0.5-0.4
								c2.5,0.5,5.1-0.3,7.3-2c1-0.9,2-1.9,2.7-3.1c0.7-1.1,1.2-2.4,1.6-4c0.1-0.3,0.3-0.4,0.6-0.4c0.3,0.1,0.4,0.3,0.3,0.6
								c-0.4,1.7-1,3.1-1.7,4.3c-0.8,1.3-1.7,2.4-2.9,3.3C338,280.3,335.8,281.2,333.6,281.2z"/>
						</g>
						<g>
							<path class="st4" d="M334.6,268.9c-0.9,0-1.7-0.1-2.5-0.4c-0.2-0.1-0.4-0.3-0.3-0.6c0.1-0.2,0.3-0.4,0.6-0.3
								c2.5,0.7,5,0.2,7.5-1.3c1.1-0.7,2.1-1.7,2.9-2.8c0.9-1.2,1.6-2.5,1.9-3.9c0.1-0.2,0.3-0.4,0.6-0.3c0.2,0.1,0.4,0.3,0.3,0.6
								c-0.4,1.4-1.1,2.8-2.1,4.1c-0.9,1.2-1.9,2.2-3.1,3C338.5,268.3,336.5,268.9,334.6,268.9z"/>
						</g>
						<g>
							<path class="st4" d="M336.7,256.8c-1.1,0-2.2-0.2-3.3-0.6c-0.2-0.1-0.4-0.4-0.3-0.6c0.1-0.2,0.4-0.4,0.6-0.3
								c2.4,0.9,5.1,0.7,7.5-0.7c1.2-0.7,2.2-1.5,3.2-2.5c0.9-1,1.6-2.2,2.3-3.7c0.1-0.2,0.4-0.4,0.6-0.3c0.2,0.1,0.4,0.4,0.3,0.6
								c-0.7,1.6-1.5,2.9-2.4,4c-1,1.1-2.1,2-3.4,2.7C340.1,256.3,338.4,256.8,336.7,256.8z"/>
						</g>
					</g>
				</g>
				<g>
					<path class="st0" d="M422.1,358.6c1.5,8.4-4,16.5-12.4,18c-8.4,1.5-16.5-4-18-12.4c-1.5-8.4,4-16.5,12.4-18
						C412.6,344.6,420.6,350.2,422.1,358.6z"/>
					<path class="st1" d="M411.4,360.6c4.3-0.8,7.4-4.3,7.9-8.4c-3.4-4.6-9.2-7.1-15.2-6c-1.2,0.2-2.4,0.6-3.4,1
						c-0.7,1.7-1,3.6-0.6,5.5C401.1,358,406.1,361.5,411.4,360.6z"/>
					<path class="st2" d="M412.4,367.6c1.4-1.2,2.1-3.1,1.7-5.1c-0.5-3-3.4-5-6.4-4.5c-3,0.5-5,3.4-4.5,6.5c0.5,2.5,2.5,4.3,4.9,4.5
						c1.2,2,3.2,4.3,6,6c1.3-0.7,2.5-1.5,3.5-2.5C415.7,371.7,413.9,369.6,412.4,367.6z"/>
				</g>
			</g>
			<g>
				<g>
					<path class="st0" d="M96.8,242.2c-8-2.9-16.9,1.2-19.8,9.3c-2.9,8,1.2,16.9,9.3,19.8c8,2.9,16.9-1.2,19.8-9.3
						C109,254,104.9,245.2,96.8,242.2z"/>
					<path class="st1" d="M93.1,252.5c1.5-4.1,5.5-6.6,9.6-6.4c3.9,4.1,5.4,10.2,3.4,16c-0.4,1.1-1,2.2-1.6,3.2
						c-1.8,0.4-3.7,0.4-5.6-0.3C93.9,263.1,91.3,257.5,93.1,252.5z"/>
					<path class="st2" d="M86.3,250.3c1.5-1.1,3.4-1.5,5.3-0.9c2.9,1,4.4,4.2,3.3,7.1c-1,2.9-4.2,4.4-7.1,3.3
						c-2.4-0.9-3.8-3.2-3.6-5.5c-1.7-1.6-3.7-3.9-4.9-7c0.9-1.2,1.9-2.2,3-3C82.9,246.4,84.6,248.6,86.3,250.3z"/>
				</g>
				<g>
					<path class="st3" d="M61.2,237.7c10.5,6.7,18.2,6.5,22.5,1.5c4.3-5,1.4-13.5-5.3-20.5c-7.3-7.6-17.8-20.9-21-26.8
						c0,0-9.1,0.1-18.3,10.6c-9.2,10.5-7.9,15.8-7.9,15.8S51.1,231.3,61.2,237.7z"/>
					<g>
						<path class="st4" d="M64.8,212.3c0.4,0.3,0.9-0.3,0.5-0.6c-6.4-4.7-11.3-10.9-15.4-17.7c-0.2,0.1-0.4,0.2-0.7,0.3
							C53.3,201.2,58.4,207.6,64.8,212.3z"/>
						<path class="st4" d="M54.4,216.3c0.4,0.3,0.9-0.3,0.5-0.6c-5.6-3.9-11.3-8-16.2-12.8c-0.2,0.2-0.3,0.4-0.5,0.6
							C43.1,208.3,48.8,212.4,54.4,216.3z"/>
						<path class="st4" d="M55,221.8c0.4,0.3,0.7-0.4,0.3-0.7c-6.9-4.2-13.7-8.8-19.8-14.2c-0.1,0.2-0.3,0.4-0.4,0.6
							C41.3,213,48.1,217.5,55,221.8z"/>
						<path class="st4" d="M58.3,207.5c-3.9-3.8-7.7-7.8-11.3-11.9c-0.2,0.1-0.4,0.3-0.6,0.4c3.6,4.2,7.4,8.2,11.4,12.1
							C58.2,208.4,58.6,207.9,58.3,207.5z"/>
						<path class="st4" d="M42.8,214.9c-3-1.7-6-3.4-8.8-5.4c-0.1,0.2-0.3,0.4-0.4,0.7c2.8,2,5.9,3.7,8.9,5.4
							C42.8,215.9,43.2,215.2,42.8,214.9z"/>
						<path class="st4" d="M58,227.1c-8.9-3.9-17.8-8.2-25.9-13.8c-0.1,0.3-0.2,0.5-0.3,0.7c8.1,5.5,16.9,9.9,25.8,13.7
							C58.1,228,58.4,227.3,58,227.1z"/>
						<path class="st4" d="M49.5,203.8c-1.9-1.9-3.8-3.9-5.6-6c-0.2,0.2-0.4,0.3-0.6,0.5c1.9,2.1,3.8,4.1,5.7,6.1
							C49.4,204.7,49.9,204.1,49.5,203.8z"/>
						<g>
							<g>
								<path class="st4" d="M84.1,234.5c-0.6-5.1-4.7-8.8-8.1-12.2c-0.3-0.3-0.6,0.2-0.4,0.4c3.3,3.3,7.3,6.9,7.9,11.8
									C83.6,234.9,84.2,234.8,84.1,234.5L84.1,234.5z"/>
							</g>
							<g>
								<path class="st4" d="M81,234.5c-1.8-3.1-4.5-5.4-7.2-7.7c-3.3-2.9-6.9-5.6-10.3-8.4c-0.3-0.2-0.7,0.2-0.4,0.4
									c3.2,2.5,6.4,5,9.5,7.6c2.9,2.5,6,5,7.9,8.4C80.7,235.2,81.2,234.8,81,234.5L81,234.5z"/>
							</g>
							<g>
								<path class="st4" d="M77.3,235.1c-3-2.4-6.1-4.6-9.2-7c-0.3-0.2-0.7,0.2-0.4,0.4c3,2.4,6.2,4.6,9.2,7
									C77.2,235.7,77.6,235.3,77.3,235.1L77.3,235.1z"/>
							</g>
							<g>
								<path class="st4" d="M78,237.7c-5.2-0.7-9.6-3.9-14-6.5c-0.3-0.2-0.6,0.3-0.2,0.5c4.5,2.6,8.9,5.8,14.1,6.6
									C78.3,238.3,78.4,237.8,78,237.7L78,237.7z"/>
							</g>
							<g>
								<path class="st4" d="M77.7,240.5c-3.2,1.2-6.5-0.8-9.3-2.2c-0.3-0.2-0.6,0.3-0.2,0.5c2.9,1.4,6.4,3.5,9.7,2.2
									C78.3,240.9,78.1,240.4,77.7,240.5L77.7,240.5z"/>
							</g>
							<g>
								<path class="st4" d="M77.4,239.7c-1.8-0.5-3.7-0.4-5.4-1.2c-0.3-0.2-0.6,0.4-0.2,0.5c1.8,0.8,3.7,0.7,5.6,1.3
									C77.6,240.3,77.7,239.8,77.4,239.7L77.4,239.7z"/>
							</g>
							<g>
								<path class="st4" d="M80.8,236.8c-1.5-3.1-4.7-4.8-7.4-6.7c-0.3-0.2-0.7,0.2-0.4,0.4c2.7,1.9,5.8,3.5,7.3,6.6
									C80.5,237.5,81,237.2,80.8,236.8L80.8,236.8z"/>
							</g>
							<g>
								<path class="st4" d="M84.6,232.2c-0.8-4.9-4-8.3-7.5-11.6c-0.3-0.2-0.6,0.2-0.4,0.4c3.4,3.1,6.6,6.5,7.3,11.2
									C84.1,232.6,84.7,232.6,84.6,232.2L84.6,232.2z"/>
							</g>
						</g>
					</g>
					<path class="st4" d="M77.1,245c-2.6-2.3-2.2-6.9,0.9-10.4c3.1-3.5,7.6-4.5,10.2-2.3s2.2,6.9-0.9,10.4
						C84.3,246.3,79.7,247.3,77.1,245z"/>
				</g>
				<g>
					<path class="st3" d="M82.7,234.2c1.6-0.7,3.4-0.7,5,0c31.8,13.3,55.5,14.2,84.3,3.3c21.3-8.4,39.6-24.1,54.2-46.7
						c2-3,6.1-3.9,9.1-1.9c0.5,0.3,1,0.7,1.3,1.2c2,2.2,2.2,5.5,0.6,7.9c-16.2,24.9-36.5,42.3-60.5,51.8
						c-32,12.1-59.3,11.1-94.1-3.4c-0.9-0.4-1.7-1-2.4-1.7c-1.7-1.9-2.1-4.6-1.1-6.9C79.8,236.1,81,234.9,82.7,234.2z"/>
					<g>
						<g>
							<path class="st4" d="M90.4,249.2c0.1,0.1,0.2,0.1,0.3,0.2c0.3,0,0.5-0.1,0.5-0.4c0.4-2.6,1.9-4.8,4.3-6.2
								c2.4-1.5,5.3-2,8.1-1.6c0.3,0,0.5-0.1,0.5-0.4c0-0.3-0.1-0.5-0.4-0.5c-3-0.5-6.1,0.1-8.7,1.7c-2.6,1.6-4.3,4.1-4.7,6.9
								C90.2,249,90.3,249.1,90.4,249.2z"/>
						</g>
						<g>
							<path class="st4" d="M77.8,245.1c0.1,0.1,0.2,0.1,0.3,0.2c0.3,0,0.5-0.1,0.5-0.4c0.4-2.6,1.9-4.8,4.3-6.2
								c2.4-1.5,5.3-2,8.1-1.6c0.3,0,0.5-0.1,0.5-0.4c0-0.3-0.1-0.5-0.4-0.5c-3-0.5-6.1,0.1-8.7,1.7c-2.6,1.6-4.3,4.1-4.7,6.9
								C77.7,244.9,77.7,245,77.8,245.1z"/>
						</g>
						<g>
							<path class="st4" d="M102.1,253.1c0.1,0.1,0.2,0.1,0.3,0.2c0.3,0,0.5-0.2,0.5-0.4c0.2-2.6,1.5-4.9,3.8-6.5
								c2.3-1.7,5.1-2.5,7.9-2.3c0.3,0,0.5-0.2,0.5-0.4c0-0.3-0.2-0.5-0.4-0.5c-3-0.2-6,0.7-8.5,2.5c-2.5,1.8-4,4.4-4.2,7.2
								C102,252.9,102,253,102.1,253.1z"/>
						</g>
						<g>
							<path class="st4" d="M114.2,256c0.1,0.1,0.2,0.2,0.4,0.2c0.3,0,0.5-0.2,0.5-0.5c-0.1-2.6,1-5,3.1-6.9c1-0.9,2.2-1.7,3.4-2.2
								c0.6-0.3,1.3-0.5,2-0.6c0.6-0.1,1.4-0.2,2.2-0.3c0.3,0,0.4-0.3,0.4-0.5c0-0.3-0.3-0.4-0.5-0.4c-0.9,0.1-1.6,0.2-2.3,0.3
								c-0.7,0.2-1.5,0.4-2.2,0.7c-1.3,0.6-2.6,1.4-3.7,2.3c-2.3,2.1-3.5,4.8-3.4,7.6C114.1,255.8,114.1,255.9,114.2,256z"/>
						</g>
						<g>
							<path class="st4" d="M126.7,257.6c0.1,0.1,0.3,0.2,0.4,0.2c0.3,0,0.4-0.3,0.4-0.5c-0.4-2.5,0.5-5.1,2.3-7.2
								c0.9-1,1.9-1.9,3.1-2.6c0.6-0.3,1.2-0.6,1.9-0.9c0.7-0.3,1.4-0.5,2.1-0.6c0.3-0.1,0.4-0.3,0.4-0.6c-0.1-0.3-0.3-0.4-0.6-0.4
								c-0.7,0.1-1.5,0.4-2.2,0.7c-0.7,0.2-1.4,0.5-2,0.9c-1.3,0.7-2.4,1.7-3.4,2.8c-2,2.3-2.9,5.1-2.5,7.9
								C126.6,257.5,126.6,257.6,126.7,257.6z"/>
						</g>
						<g>
							<path class="st4" d="M139.3,257.8c0.1,0.1,0.3,0.2,0.5,0.1c0.3-0.1,0.4-0.3,0.3-0.6c-0.3-1.3-0.4-2.6-0.1-3.9
								c0.3-1.2,0.8-2.4,1.5-3.6c1.5-2.2,3.8-3.9,6.6-4.9c0.2-0.1,0.4-0.4,0.3-0.6c-0.1-0.2-0.4-0.4-0.6-0.3c-3,1-5.5,2.8-7.1,5.2
								c-0.8,1.3-1.4,2.6-1.7,3.9c-0.3,1.5-0.3,2.9,0.1,4.3C139.2,257.7,139.3,257.7,139.3,257.8z"/>
						</g>
						<g>
							<path class="st4" d="M151.8,256.4c0.1,0.1,0.3,0.2,0.5,0.1c0.2-0.1,0.4-0.4,0.3-0.6c-0.9-2.3-0.8-5,0.5-7.6
								c0.6-1.2,1.4-2.3,2.4-3.2c1.2-1.1,2.4-1.9,3.6-2.4c0.2-0.1,0.3-0.4,0.2-0.6c-0.1-0.2-0.4-0.3-0.6-0.2
								c-1.3,0.6-2.6,1.4-3.8,2.6c-1.1,1-2,2.1-2.7,3.4c-1.4,2.8-1.6,5.8-0.6,8.4C151.8,256.3,151.8,256.3,151.8,256.4z"/>
						</g>
						<g>
							<path class="st4" d="M164,253.6c0.1,0.2,0.4,0.2,0.6,0.1c0.2-0.1,0.3-0.4,0.2-0.6c-1.2-2.3-1.3-4.9-0.2-7.6
								c0.5-1.3,1.2-2.4,2.1-3.4c1.1-1.2,2.2-2.1,3.4-2.7c0.2-0.1,0.3-0.4,0.2-0.6c-0.1-0.2-0.4-0.3-0.6-0.2
								c-1.3,0.7-2.4,1.6-3.6,2.9c-1,1.1-1.8,2.3-2.3,3.7C162.6,248,162.7,251,164,253.6C164,253.5,164,253.6,164,253.6z"/>
						</g>
						<g>
							<path class="st4" d="M175.9,249.7c0.2,0.2,0.4,0.2,0.6,0.1c0.2-0.1,0.3-0.4,0.1-0.6c-1.8-2.7-1.5-5.6-0.9-7.5
								c0.4-1.3,1-2.5,1.7-3.6c0.8-1.2,1.8-2.2,3-3c0.2-0.1,0.3-0.4,0.1-0.7c-0.2-0.2-0.4-0.3-0.7-0.1c-1.3,0.9-2.3,2-3.2,3.3
								c-0.9,1.2-1.5,2.5-1.9,3.9C173.9,244.4,174.3,247.3,175.9,249.7C175.8,249.7,175.9,249.7,175.9,249.7z"/>
						</g>
						<g>
							<path class="st4" d="M187.3,244.4c0.2,0.2,0.5,0.2,0.7,0.1c0.2-0.2,0.2-0.5,0.1-0.7c-1.6-1.9-2.3-4.6-1.8-7.3
								c0.2-1.3,0.7-2.7,1.3-3.8c0.6-1.1,1.5-2.2,2.7-3.4c0.2-0.2,0.2-0.5,0-0.7c-0.2-0.2-0.5-0.2-0.7,0c-1.2,1.2-2.2,2.4-2.8,3.6
								c-0.7,1.2-1.2,2.7-1.4,4.1C184.8,239.4,185.5,242.3,187.3,244.4C187.3,244.4,187.3,244.4,187.3,244.4z"/>
						</g>
						<g>
							<path class="st4" d="M197.6,237.5c0.2,0.2,0.3,0.4,0.5,0.5c0.2,0.2,0.5,0.2,0.7,0s0.2-0.5,0-0.7c-1.8-1.8-2.7-4.2-2.6-7.1
								c0.1-1.3,0.4-2.7,0.9-3.9c0.6-1.4,1.4-2.6,2.3-3.6c0.2-0.2,0.2-0.5,0-0.7c-0.2-0.2-0.5-0.2-0.7,0c-1,1.1-1.8,2.4-2.5,3.9
								c-0.6,1.3-0.9,2.8-1,4.2C195.1,233.1,195.9,235.6,197.6,237.5z"/>
						</g>
						<g>
							<path class="st4" d="M206.9,229.3c0.4,0.4,0.8,0.8,1.2,1.2c0.2,0.2,0.5,0.1,0.7-0.1c0.2-0.2,0.1-0.5-0.1-0.7
								c-2-1.6-3.2-4-3.3-6.8c0-1.3,0.1-2.7,0.5-4c0.4-1.3,1-2.5,1.9-3.8c0.2-0.2,0.1-0.5-0.1-0.7c-0.2-0.2-0.5-0.1-0.7,0.1
								c-1,1.4-1.7,2.8-2.1,4.1c-0.4,1.4-0.6,2.9-0.6,4.3C204.6,225.5,205.4,227.7,206.9,229.3z"/>
						</g>
						<g>
							<path class="st4" d="M215.4,220.4c0.6,0.6,1.2,1.2,2,1.7c0.2,0.1,0.5,0.1,0.6-0.1c0.1-0.2,0.1-0.5-0.1-0.6
								c-2.2-1.4-3.5-3.6-4-6.5c-0.2-1.3-0.1-2.7,0.2-4c0.3-1.5,0.9-2.8,1.6-4c0.1-0.2,0.1-0.5-0.1-0.6c-0.2-0.1-0.5-0.1-0.6,0.1
								c-0.8,1.3-1.4,2.7-1.7,4.3c-0.3,1.4-0.4,2.9-0.2,4.4C213.3,217.1,214.1,219,215.4,220.4z"/>
						</g>
						<g>
							<path class="st4" d="M223,210.8c0.7,0.8,1.6,1.5,2.7,2.1c0.2,0.1,0.5,0,0.6-0.2s0-0.5-0.2-0.6c-2.3-1.2-3.9-3.3-4.5-6.1
								c-0.3-1.3-0.4-2.7-0.2-4.1c0.2-1.3,0.6-2.7,1.3-4.1c0.1-0.2,0-0.5-0.2-0.6c-0.2-0.1-0.5,0-0.6,0.2c-0.7,1.6-1.2,3-1.4,4.4
								c-0.2,1.5-0.1,2.9,0.2,4.4C221.1,208,221.9,209.5,223,210.8z"/>
						</g>
					</g>
				</g>
				<g>
					<path class="st0" d="M112.4,233.4c-4.9,7-14.6,8.7-21.5,3.8c-7-4.9-8.7-14.6-3.8-21.5c4.9-7,14.6-8.7,21.5-3.8
						C115.7,216.8,117.3,226.4,112.4,233.4z"/>
					<path class="st1" d="M103.5,227.2c3.6,2.5,8.3,2.3,11.6-0.3c0.9-5.6-1.4-11.5-6.4-15c-1-0.7-2.1-1.3-3.1-1.7
						c-1.7,0.7-3.2,1.8-4.4,3.4C98.1,218,99.1,224.1,103.5,227.2z"/>
					<path class="st2" d="M99.2,232.8c1.8,0.1,3.7-0.7,4.9-2.3c1.8-2.5,1.2-6-1.3-7.7c-2.5-1.8-6-1.2-7.7,1.3
						c-1.4,2.1-1.3,4.8,0.2,6.6c-0.5,2.3-0.8,5.3-0.1,8.5c1.4,0.4,2.8,0.7,4.2,0.7C98.6,238,98.7,235.3,99.2,232.8z"/>
				</g>
			</g>
		</g>
		<g>
			<g>
				<path class="st6" d="M272.5,146.1c0,0-0.8-60.6-15.3-72.6c-2.9-2.4-53.6,25.8-77.3,95.1c-6.7,19.6,18.9,43.9,18.9,43.9
					S272.9,195.8,272.5,146.1z"/>
				<path class="st7" d="M257.2,73.5c14.5,12,15.3,72.6,15.3,72.6c0.1,15.8-7.3,28.2-17.4,37.8C269.2,133.2,256.6,78.2,257.2,73.5z"
					/>
				<path class="st4" d="M247.6,84.4c-10.5,1.7-46.7,50-47.2,53.2c-0.5,3.1,50-6.9,50.7-8.3C251.9,127.9,254.6,83.3,247.6,84.4z"/>
			</g>
			<g>
				<path class="st6" d="M374.6,274.7c6-37.2,8.1-143.2-23.4-187.4c-4.9-6.8-39.2,23.4-61.7,52c-9.4,12-21.2,51-21.2,51
					S369.2,307.7,374.6,274.7z"/>
				<path class="st7" d="M351.1,87.3c31.5,44.2,29.4,150.2,23.4,187.4c-1.3,8.1-8.5,7.1-18.5,1C382.4,205.2,353,95.5,351.1,87.3z"/>
				<path class="st4" d="M344.6,97.2c8.1,9.3,10,74.2,8.1,77.5c-1.9,3.2-47-38.9-46.6-40.7C306.5,132.2,339.2,91.1,344.6,97.2z"/>
			</g>
			<path class="st6" d="M366.1,318.3c-16.4,48.6-54.4,88-101.1,93.1c-46.7,5.1-129.5-30.8-132.2-74.6c0,0-4.8,0.8-7.9-3
				c-6.3-7.7-10.9-28.5-7.4-37.8c2.4-6.3,20.7-12.8,20.7-12.8s1.1-28.5,9-45c0,0,0.6-13.5,2.2-20.6c1.7-7.1,23.5-48.5,47.5-65.1
				s66.1-23.3,100.7-10.8C337.5,156.3,397,227.2,366.1,318.3z"/>
			<g>
				<path class="st4" d="M140.6,323.4c5.5,0.3,10.2-8.8,14.7-13.7c4.5-4.9,12.8-3.5,14-5.5c4.9-7.5-4.2-14.5-26.8-14.3
					c-9.9,0.1-14.6,2.9-15,9.2c0,0.8,5.5,2.2,6.2,8C134.3,311.6,135.8,323.1,140.6,323.4z"/>
				<path class="st8" d="M142.6,289.9c22.5-0.2,31.7,6.8,26.8,14.3c-1.3,1.9-9.6,0.5-14,5.5c-4.4,4.9-9,13.7-14.5,13.7
					c4.3-14,17.8-20.9,16.7-23.8c-1.9-4.7-19.3-8.6-28.1-5.6C131.6,291.3,135.9,290,142.6,289.9z"/>
			</g>
			<g>
				<path class="st4" d="M351.1,205.9c0,0,1.8,47.4-39.5,64.3c-41.3,16.9-86.8-2.9-96.6,20.8c0,0,1.2-10.3,12.4-24.9
					c12.1-15.8,33.4-33.8,63.1-32.2c23.9,1.3,37.5-0.8,48.8-9.3C349.4,216.9,351.1,205.9,351.1,205.9z"/>
				<path class="st8" d="M237.5,271.7c0,0,25.3-23.5,40.1-26.8s27.7,3.3,42.7-1.6c15-4.9,19.8-10.6,19.8-10.6s-8.4,13.7-27.8,25.6
					C292.8,270.2,260.4,271.4,237.5,271.7z"/>
				<path class="st9" d="M317.2,248.9c0,0-25.1-1.3-38.2-0.2c-12.6,1-31.5,20.2-31.5,20.2s19.5,0.1,37.9-4.4
					C304.5,259.8,317.2,248.9,317.2,248.9z"/>
			</g>
			<g>
				<path class="st4" d="M162.5,270.8c-5.9-4.8-13.1-9.8-20.6-15.5c1.3-6,3.1-12,5.4-17c0,0,0.6-13.5,2.2-20.6
					c0.2-1,0.9-2.7,1.9-4.8c16.1,11.1,23.7,26.4,26.9,40.7C175.5,259.1,170.6,265,162.5,270.8z"/>
				<path class="st8" d="M168,243.6c3.9,5.6,4.5,13.5,4.6,18.3c-1.6,1.8-3.5,3.7-5.7,5.5c-1.4-1.9-3.9-5.2-7.2-8.6
					c-5-5.3-12-13.2-12.3-21.2c0.1-1,0.2-3.1,0.4-5.6C156,232.4,162,235,168,243.6z"/>
				<path class="st9" d="M164.4,243.9c5,7.4,5.8,16.5,6,20.3c-0.5,0.5-1.1,1.1-1.7,1.6c-2.3-2.5-9.9-10.7-14.5-17.8
					c-3.8-5.9-5.9-9.9-6.9-11.8c0-0.7,0.1-1.6,0.2-2.6C150.8,234.1,159.2,236.3,164.4,243.9z"/>
			</g>
			<path class="st7" d="M179.6,229.5c0,0,0,0.1,0.1,0.2c0,0.1,0.1,0.3,0.2,0.6c0.2,0.5,0.4,1.3,0.6,2.3c0.4,2,0.8,4.9,0.4,8.3
				c-0.1,1.7-0.5,3.6-1,5.5c-0.5,1.9-1.3,3.8-2.2,5.8c-0.3,0.5-0.5,1-0.8,1.4c-0.3,0.5-0.6,0.9-0.9,1.4c-0.5,1-1.2,1.9-1.9,2.8
				c-0.7,0.9-1.4,1.8-2.2,2.7l-1.2,1.3c-0.4,0.4-0.8,0.9-1.2,1.2c-0.8,0.8-1.6,1.6-2.5,2.4c-0.9,0.8-1.7,1.5-2.7,2.2
				c-1.8,1.4-3.6,2.7-5.4,4c-0.9,0.6-1.8,1.2-2.7,1.7c-0.9,0.6-1.8,1.1-2.7,1.6c-1.7,1.1-3.4,1.9-5,2.8c-1.5,0.9-3,1.5-4.3,2.2
				c-1.3,0.7-2.4,1.2-3.3,1.7c-0.9,0.5-1.7,0.8-2.2,1.1c-0.5,0.3-0.8,0.4-0.8,0.4l0,0c-0.2,0.1-0.3,0.4-0.2,0.6
				c0.1,0.2,0.3,0.3,0.6,0.2c0,0,0.3-0.1,0.8-0.3c0.5-0.2,1.3-0.4,2.3-0.7c1-0.3,2.2-0.7,3.6-1.3c1.4-0.6,2.9-1.1,4.5-1.9
				c1.6-0.8,3.4-1.5,5.2-2.5c1.8-0.9,3.7-2.1,5.6-3.3c1.9-1.3,3.8-2.5,5.7-4.1c1-0.7,1.8-1.5,2.8-2.3c0.9-0.8,1.8-1.7,2.6-2.5
				c0.9-0.8,1.7-1.8,2.5-2.7c0.8-0.9,1.5-1.9,2.2-2.9c1.4-2,2.6-4,3.6-6.1c0.9-2.1,1.7-4.2,2.2-6.3c0.5-2.1,0.7-4.1,0.8-5.9
				c0.1-3.7-0.5-6.7-1.1-8.8c-0.6-2-1.2-3.1-1.2-3.1c-0.1-0.2-0.4-0.3-0.6-0.2C179.6,229,179.5,229.3,179.6,229.5z"/>
			<g>
				<path class="st7" d="M125,333.9c-0.8-1-1.6-2.2-2.3-3.6c10.9,4.9,17.3,1.8,17.3,1.8s29.3,20.7,48.5,19.4
					c19.2-1.3,42.1-12.7,73.1-6.4c31.1,6.3,45.7-10.5,45.7-10.5l0.4,10c0,0-14.2,15.2-49.2,8.8c-34.9-6.4-43.3,7.6-70.9,6.3
					c-27.5-1.3-39.3-11.1-47.8-26.2c0,0-2.2,2.8-6.9,4.1c0-0.2,0-0.5-0.1-0.7C132.9,336.9,128.1,337.7,125,333.9z"/>
				<path class="st7" d="M256.2,402.2c46.7-5.1,84.6-44.6,101.1-93.1c20.9-61.6,0.5-113.9-27.2-145.8
					c31.9,30.4,59.2,87.1,36.1,155.1c-16.4,48.6-54.4,88-101.1,93.1c-36.7,4-95.8-17.4-120.6-48C172.5,389,223.3,405.8,256.2,402.2z
					"/>
			</g>
			<g>
				<path class="st0" d="M352.8,250.1c0,0-0.2,0.4-0.6,1.2c-0.4,0.8-0.9,2-1.7,3.5c-0.7,1.5-1.7,3.3-2.8,5.2c-1.1,2-2.4,4.2-4,6.5
					c-1.5,2.3-3.3,4.7-5.3,7.1c-2,2.4-4.3,4.7-6.9,6.8c-2.6,2.1-5.4,3.9-8.5,5.2l-1.2,0.5l-0.1,0.1l-0.1,0c0,0-0.2,0.1,0.1,0l0,0
					l-0.3,0.1l-0.7,0.2l-0.7,0.2c-0.2,0.1-0.5,0.2-0.6,0.2l-1.1,0.3c-0.7,0.2-1.6,0.4-2.5,0.5c-0.9,0.1-1.7,0.3-2.6,0.3
					c-3.5,0.4-7,0.3-10.6,0c-3.6-0.2-7.2-0.7-10.8-1c-3.6-0.4-7.1-0.7-10.5-0.8c-3.4-0.1-6.7,0-9.7,0.5c-3,0.5-5.7,1.3-8,2.3
					c-2.3,1.1-4.1,2.2-5.4,3.4c-0.7,0.5-1.2,1.1-1.7,1.6c-0.5,0.5-0.9,0.9-1.2,1.3c-0.6,0.7-0.9,1.1-0.9,1.1
					c-0.1,0.2-0.1,0.4,0.1,0.6c0.1,0.1,0.3,0.1,0.5,0l0,0c0,0,0.4-0.3,1.1-0.8c0.4-0.3,0.8-0.6,1.4-0.9c0.6-0.3,1.2-0.7,1.9-1
					c0.4-0.2,0.7-0.4,1.1-0.5c0.4-0.2,0.8-0.3,1.3-0.5c0.4-0.2,0.9-0.3,1.4-0.5c0.5-0.1,1-0.3,1.5-0.4c2.1-0.5,4.6-0.8,7.3-0.8
					c2.7,0,5.6,0.2,8.8,0.7c3.1,0.4,6.5,1,10,1.7c3.5,0.6,7.2,1.3,11.1,1.7c3.9,0.4,7.9,0.6,12.1,0.2c1-0.1,2.1-0.3,3.1-0.4
					c1-0.2,2-0.4,3.1-0.7l1.6-0.5c0.6-0.2,0.9-0.3,1.4-0.5l0.7-0.2l0.3-0.1l0.2-0.1l0.1,0l0.2-0.1l1.4-0.6c0.9-0.4,1.8-1,2.8-1.4
					c0.9-0.6,1.8-1.1,2.6-1.7c0.8-0.6,1.6-1.2,2.4-1.8c0.8-0.6,1.5-1.3,2.2-1.9c2.8-2.6,5.1-5.5,7.1-8.4c1.9-2.8,3.5-5.7,4.7-8.4
					c2.5-5.4,3.9-10.1,4.6-13.4c0.4-1.6,0.6-3,0.8-3.9c0.1-0.9,0.2-1.4,0.2-1.4c0-0.2-0.1-0.4-0.4-0.4
					C353.1,249.9,352.9,250,352.8,250.1z"/>
				<path class="st0" d="M347.2,277.3c0,0-0.7,1.3-2,3.4c-0.6,1.1-1.4,2.4-2.4,3.8c-0.9,1.4-2,3-3.2,4.7c-1.2,1.7-2.6,3.5-4.1,5.2
					c-0.7,0.9-1.6,1.8-2.4,2.6c-0.8,0.9-1.7,1.7-2.6,2.5c-1.9,1.5-3.9,2.9-6,3.8c-1.1,0.4-2.2,0.8-3.3,0.9c-0.6,0.1-1.1,0.1-1.7,0.2
					l-0.1,0l-0.1,0c0,0,0.3,0,0.1,0l0,0l-0.3,0l-0.5,0l-1.1,0c-1.5,0-2.6-0.2-3.8-0.3c-0.6-0.1-1.3-0.2-1.9-0.3l-0.9-0.2l-0.9-0.2
					c-2.5-0.6-5-1.5-7.5-2.3c-2.5-0.9-5-1.8-7.4-2.5c-1.2-0.4-2.4-0.7-3.6-0.9c-0.6-0.1-1.2-0.3-1.8-0.4c-0.6-0.1-1.2-0.2-1.7-0.2
					c-1.1-0.2-2.2-0.2-3.3-0.2c-1-0.1-2,0.1-2.9,0.1c-0.5,0-0.9,0.1-1.3,0.1c-0.4,0.1-0.8,0.1-1.2,0.2c-0.8,0.1-1.5,0.3-2.1,0.4
					c-1.3,0.3-2.2,0.7-2.9,0.8c-0.7,0.2-1,0.3-1,0.3c-0.2,0.1-0.3,0.3-0.3,0.5c0.1,0.2,0.2,0.3,0.4,0.3h0c0,0,0.4,0,1,0
					c0.7,0,1.6,0,2.9,0c0.6,0,1.3,0.1,2,0.2c0.4,0,0.7,0.1,1.1,0.1c0.4,0.1,0.8,0.1,1.2,0.2c0.8,0.1,1.7,0.2,2.6,0.5
					c0.9,0.2,1.9,0.4,2.8,0.7c0.5,0.2,1,0.3,1.5,0.5c0.5,0.2,1,0.4,1.5,0.6c1,0.4,2.1,0.8,3.1,1.3c2.2,1,4.5,2.1,6.9,3.3
					c2.5,1.1,5.2,2.3,8.1,3.1l1.1,0.3l1.1,0.2c0.8,0.2,1.5,0.3,2.3,0.5c1.6,0.2,3.4,0.4,4.7,0.4l1.1,0l0.5,0l0.3,0l0.2,0l0.1,0
					l0.2,0c0.9-0.1,1.7-0.1,2.6-0.3c1.7-0.3,3.3-0.8,4.8-1.5c3-1.4,5.5-3.3,7.7-5.4c2.1-2.1,3.8-4.3,5.2-6.5
					c1.4-2.2,2.6-4.3,3.5-6.3c0.9-2,1.7-3.9,2.2-5.6c0.6-1.7,1-3.2,1.3-4.4c0.6-2.5,0.8-3.9,0.8-3.9c0-0.2-0.1-0.4-0.4-0.5
					C347.5,277.1,347.3,277.1,347.2,277.3z"/>
				<path class="st0" d="M219.3,204.3c0,0-0.1,0.3-0.4,1c-0.2,0.6-0.7,1.6-1.1,2.8c-0.2,0.6-0.6,1.2-0.9,1.9c-0.3,0.7-0.6,1.5-1,2.3
					c-0.4,0.8-0.8,1.7-1.2,2.6c-0.4,0.9-0.9,1.8-1.4,2.8c-0.5,1-1,2-1.6,3c-0.6,1-1.1,2.1-1.7,3.2c-1.3,2.1-2.5,4.4-4,6.7
					c-0.7,1.1-1.4,2.3-2.2,3.5c-0.8,1.1-1.6,2.3-2.4,3.4c-0.4,0.6-0.8,1.2-1.2,1.8c-0.4,0.6-0.8,1.1-1.3,1.7
					c-0.8,1.1-1.7,2.3-2.6,3.4l-0.6,0.9l-0.7,0.8l-1.4,1.6c-0.9,1.1-1.8,2.2-2.7,3.3c-1.9,2.1-3.8,4.1-5.5,6.2
					c-1.9,1.9-3.7,3.8-5.4,5.6c-0.4,0.4-0.8,0.9-1.3,1.3c-0.4,0.4-0.9,0.8-1.3,1.2c-0.9,0.8-1.7,1.6-2.5,2.3c-1.6,1.5-3,3-4.4,4.1
					c-1.4,1.2-2.5,2.2-3.5,3.1c-1,0.9-1.7,1.6-2.2,2.1c-0.5,0.5-0.8,0.8-0.8,0.8l0,0c-0.2,0.2-0.2,0.6,0,0.9
					c0.2,0.2,0.4,0.2,0.7,0.1c0,0,0.3-0.1,1-0.4c0.6-0.3,1.6-0.7,2.8-1.3c1.2-0.6,2.6-1.2,4.3-2.1c1.7-0.8,3.4-1.9,5.3-3.1
					c1-0.6,1.9-1.3,3-1.9c0.5-0.3,1-0.7,1.6-1c0.5-0.4,1-0.8,1.5-1.2c2-1.6,4.2-3.3,6.4-5.2c1-1,2.1-2,3.1-3c1-1,2.1-2,3.2-3.1
					c2-2.3,4-4.5,5.9-6.9c0.9-1.2,1.8-2.5,2.7-3.7c0.4-0.6,0.9-1.2,1.3-1.8c0.4-0.6,0.8-1.3,1.2-1.9c0.8-1.3,1.6-2.5,2.3-3.8
					c0.7-1.3,1.4-2.6,2-3.9c1.4-2.5,2.4-5.1,3.4-7.5c0.5-1.2,0.9-2.4,1.3-3.6c0.4-1.2,0.8-2.3,1.1-3.4c0.3-1.1,0.6-2.2,0.8-3.2
					c0.2-1,0.4-2,0.6-2.9c0.4-1.8,0.5-3.4,0.7-4.7c0.1-1.3,0.2-2.4,0.2-3.1c0-0.7,0-1.1,0-1.1l0,0c0-0.3-0.3-0.6-0.7-0.6
					C219.6,204,219.4,204.1,219.3,204.3z"/>
				<path class="st0" d="M264.3,175c0,0-0.2,0.2-0.7,0.7c-0.4,0.4-1.1,1.1-1.9,1.9c-0.8,0.8-1.8,1.7-3,2.7c-1.2,1-2.5,2.1-4.1,3.3
					c-1.5,1.1-3.2,2.3-5,3.3c-1.8,1.1-3.8,2-5.9,2.8c-4.1,1.6-8.7,2.4-13.3,2.1c-0.6,0-1.1-0.1-1.7-0.1c-0.6-0.1-1.1-0.1-1.7-0.3
					l-1.5-0.3l-0.9-0.2c-0.3-0.1-0.7-0.2-0.8-0.2c-0.4-0.2-0.8-0.2-1.2-0.5c-0.2-0.1-0.4-0.2-0.7-0.3l-0.6-0.3
					c-0.8-0.4-1.6-1-2.3-1.6c-1.3-1.2-2.5-2.7-3.4-4.4c-0.9-1.7-1.5-3.5-2-5.2c-0.9-3.5-1.3-6.7-1.5-9c-0.1-1.1-0.2-2-0.2-2.7
					c0-0.6-0.1-0.9-0.1-0.9l0,0c0-0.4-0.4-0.7-0.8-0.7c-0.3,0-0.5,0.2-0.6,0.4c0,0-0.2,0.3-0.4,0.9c-0.3,0.6-0.6,1.5-1,2.6
					c-0.4,1.2-0.7,2.6-1,4.3c-0.3,1.7-0.5,3.6-0.4,5.8c0,2.2,0.4,4.6,1.2,7.2c0.8,2.5,2.2,5.2,4.4,7.5c1.1,1.1,2.3,2.2,3.7,3
					c1.4,0.9,2.8,1.5,4.5,2.1c0.5,0.2,0.7,0.2,1,0.3l0.9,0.3l0.1,0l0.1,0l0.2,0.1l0,0l0.3,0.1l0.5,0.1l1.1,0.2
					c0.7,0.2,1.5,0.2,2.2,0.3c0.7,0.1,1.5,0.1,2.2,0.2c3,0.1,6-0.2,8.9-0.9c2.9-0.7,5.5-1.8,8-3c2.4-1.3,4.6-2.8,6.4-4.3
					c1.9-1.6,3.5-3.2,4.9-4.8c2.8-3.2,4.5-6.1,5.7-8.2c1.1-2.1,1.6-3.4,1.6-3.4c0.1-0.4-0.1-0.8-0.4-0.9
					C264.8,174.8,264.5,174.8,264.3,175L264.3,175z"/>
				<path class="st0" d="M258.3,161.4c0,0-0.6,0.8-1.7,2.1c-0.5,0.7-1.2,1.5-2,2.4c-0.8,0.9-1.7,1.9-2.7,2.9c-1,1-2.1,2.1-3.3,3.2
					c-1.2,1.1-2.5,2.2-3.9,3.2c-2.8,2-6.1,3.6-9.4,4.1c-1.7,0.3-3.3,0.3-4.9,0l-0.6-0.1l-0.1,0l0,0c0,0-0.1,0,0.1,0l0,0l-0.2,0
					l-0.4-0.1l-0.4-0.1l-0.2,0l-0.1,0l-0.4-0.2c-0.6-0.3-1.3-0.6-1.8-1c-1.1-0.8-2-1.9-2.8-3.1c-0.7-1.2-1.3-2.6-1.7-3.9
					c-0.8-2.6-1.2-5-1.4-6.7c-0.1-0.8-0.2-1.5-0.2-2c0-0.4-0.1-0.7-0.1-0.7l0,0c0-0.4-0.4-0.7-0.8-0.6c-0.3,0-0.5,0.2-0.6,0.4
					c0,0-0.1,0.3-0.2,0.7c-0.1,0.5-0.3,1.2-0.5,2c-0.2,0.9-0.3,2-0.4,3.3c-0.1,1.3-0.1,2.7,0.1,4.4c0.2,1.6,0.6,3.4,1.4,5.2
					c0.8,1.8,2,3.7,3.9,5.2c0.9,0.7,1.9,1.3,3.1,1.8l0.9,0.3l0.2,0.1l0.2,0.1l0.3,0.1l0.4,0.1l0.2,0l0,0l0.1,0l0,0l0.1,0l0.8,0.1
					c2.2,0.4,4.6,0.4,6.8-0.1c2.2-0.4,4.4-1.2,6.3-2.2c1.9-1,3.6-2.2,5.1-3.5c3-2.6,5.3-5.4,7.1-7.9c1.7-2.5,3-4.8,3.7-6.4
					c0.8-1.6,1.1-2.6,1.1-2.6c0.1-0.4-0.1-0.8-0.4-0.9C258.8,161.1,258.4,161.2,258.3,161.4z"/>
				<path class="st0" d="M222.1,255.1c0,0,0.7-0.7,1.8-2c0.6-0.6,1.3-1.4,2.1-2.3c0.8-0.9,1.8-1.8,2.8-2.9c0.5-0.5,1-1,1.6-1.6
					c0.6-0.5,1.1-1.1,1.7-1.7c1.2-1.1,2.5-2.3,3.8-3.5c1.3-1.2,2.7-2.4,4.2-3.5c1.4-1.2,2.9-2.3,4.4-3.4c0.8-0.6,1.5-1.1,2.3-1.6
					c0.8-0.5,1.6-1,2.3-1.5c1.6-1,3.1-1.9,4.6-2.8c1.5-0.9,3-1.7,4.5-2.4c0.7-0.3,1.4-0.7,2.1-1.1c0.7-0.3,1.4-0.6,2-0.9
					c0.6-0.3,1.3-0.6,1.9-0.8c0.6-0.3,1.2-0.5,1.7-0.7c1.1-0.4,2.1-0.9,2.9-1.2c1.6-0.6,2.5-1,2.5-1l0,0c0.2-0.1,0.4-0.4,0.2-0.6
					c-0.1-0.2-0.2-0.3-0.4-0.3c0,0-1-0.1-2.8-0.2c-0.9,0-2,0-3.2,0c-1.2,0.1-2.7,0.2-4.2,0.5c-0.8,0.1-1.6,0.3-2.4,0.5
					c-0.8,0.2-1.6,0.4-2.5,0.7c-1.7,0.5-3.5,1.1-5.3,1.9c-0.9,0.4-1.8,0.8-2.7,1.2c-0.9,0.4-1.8,1-2.7,1.4c-0.9,0.5-1.7,1.1-2.6,1.6
					c-0.9,0.6-1.7,1.2-2.5,1.8c-1.7,1.2-3.2,2.6-4.7,4c-1.5,1.4-2.9,2.8-4.1,4.3c-1.3,1.5-2.4,2.9-3.4,4.3c-1,1.4-1.9,2.8-2.7,4.1
					c-1.6,2.6-2.6,5-3.2,6.6c-0.6,1.7-0.9,2.7-0.9,2.7c-0.1,0.3,0.1,0.5,0.4,0.6C221.8,255.3,222,255.2,222.1,255.1z"/>
				<path class="st0" d="M313.6,195.6c0,0-0.3,0.5-0.8,1.4c-0.5,0.9-1.2,2.2-1.9,3.7c-0.7,1.5-1.5,3.2-2.3,5
					c-0.2,0.5-0.4,0.9-0.6,1.4c-0.2,0.5-0.4,0.9-0.6,1.4c-0.4,0.9-0.8,1.9-1.2,2.8c-0.4,0.9-0.8,1.8-1.2,2.7
					c-0.2,0.4-0.4,0.9-0.6,1.3c-0.2,0.4-0.4,0.8-0.6,1.2c-0.8,1.6-1.7,3.1-2.5,4.4c-0.4,0.6-0.8,1.2-1.2,1.8c-0.4,0.6-0.7,1-1,1.4
					c-0.6,0.8-1,1.3-1,1.3l0,0c-0.2,0.2-0.1,0.6,0.1,0.7c0.1,0.1,0.2,0.1,0.3,0.1c0,0,0.2,0,0.5,0c0.3,0,0.7,0,1.3-0.1
					c0.5-0.1,1.2-0.2,2-0.4c0.4-0.1,0.8-0.3,1.2-0.4c0.4-0.2,0.8-0.4,1.2-0.6c0.4-0.2,0.8-0.5,1.3-0.8c0.4-0.3,0.8-0.6,1.3-0.9
					c0.9-0.7,1.7-1.5,2.5-2.4c0.8-0.9,1.5-1.9,2.1-2.9c0.6-1,1.2-2.1,1.7-3.2c0.5-1.1,0.9-2.3,1.2-3.4c0.3-1.1,0.6-2.3,0.8-3.4
					c0.2-1.1,0.3-2.2,0.3-3.2c0-1,0-2,0-2.9c-0.1-1.8-0.4-3.3-0.7-4.3c-0.3-1-0.5-1.6-0.5-1.6c-0.1-0.3-0.4-0.4-0.7-0.3
					C313.7,195.4,313.7,195.5,313.6,195.6L313.6,195.6z"/>
				<path class="st0" d="M333.9,203.4c0,0-0.3,0.5-0.8,1.3c-0.2,0.4-0.6,0.9-0.9,1.5c-0.2,0.3-0.4,0.6-0.6,0.9
					c-0.2,0.3-0.4,0.7-0.7,1c-0.4,0.7-0.9,1.4-1.5,2.2c-0.3,0.4-0.5,0.8-0.8,1.1c-0.3,0.4-0.6,0.8-0.9,1.2c-0.3,0.4-0.6,0.8-1,1.2
					c-0.3,0.4-0.6,0.8-1,1.2c-0.4,0.4-0.7,0.8-1.1,1.1c-0.3,0.4-0.8,0.7-1.1,1.1c-0.4,0.4-0.7,0.7-1.1,1.1c-0.4,0.3-0.8,0.7-1.2,1
					c-0.8,0.7-1.6,1.2-2.4,1.8c-0.8,0.6-1.6,1-2.4,1.5c-0.4,0.2-0.8,0.5-1.2,0.7c-0.4,0.2-0.8,0.4-1.1,0.6c-0.7,0.3-1.4,0.8-2,1
					c-0.6,0.2-1.2,0.5-1.6,0.7c-0.9,0.4-1.4,0.7-1.4,0.7l0,0c-0.2,0.1-0.3,0.4-0.2,0.7c0.1,0.1,0.2,0.2,0.4,0.3c0,0,0.6,0,1.6,0
					c0.5,0,1.2,0,1.9,0c0.7,0,1.5-0.2,2.4-0.4c0.4-0.1,0.9-0.2,1.4-0.3c0.5-0.1,0.9-0.3,1.4-0.5c0.5-0.2,1-0.4,1.5-0.6
					c0.5-0.2,1-0.4,1.5-0.7c1-0.5,2.1-1.1,3-1.8c0.5-0.4,1-0.7,1.5-1.1c0.5-0.4,0.9-0.8,1.4-1.2c0.9-0.8,1.7-1.7,2.5-2.7
					c0.8-0.9,1.4-1.9,2-2.9c0.5-1,1.1-1.9,1.5-2.9c0.2-0.5,0.4-0.9,0.6-1.4c0.2-0.5,0.3-0.9,0.4-1.3c0.3-0.8,0.4-1.7,0.6-2.4
					c0.1-0.7,0.2-1.3,0.3-1.9c0.1-0.5,0.1-0.9,0.1-1.2c0-0.3,0-0.4,0-0.4l0,0c0-0.3-0.3-0.5-0.5-0.4
					C334.1,203.2,333.9,203.3,333.9,203.4z"/>
				<path class="st0" d="M164.9,194.6c0.1,0.5,0.2,1,0.3,1.5c0.2,1,0.4,2,0.6,3c0.2,1,0.5,1.9,0.7,2.9c0.1,0.5,0.3,0.9,0.4,1.4
					c0.1,0.5,0.3,0.9,0.4,1.3c0.5,1.8,1,3.4,1.6,4.8c0.3,0.7,0.5,1.4,0.8,2c0.2,0.6,0.5,1.1,0.7,1.6c0.5,0.9,0.7,1.4,0.7,1.4l0,0
					c0,0.1,0.1,0.2,0,0.3c0,0.3-0.3,0.5-0.6,0.5c0,0-0.2,0-0.4-0.1c-0.3-0.1-0.7-0.1-1.3-0.3c-0.5-0.2-1.2-0.4-1.8-0.8
					c-0.3-0.2-0.7-0.4-1.1-0.6c-0.4-0.3-0.7-0.5-1.1-0.8c-0.4-0.3-0.7-0.7-1.1-1c-0.4-0.4-0.7-0.8-1.1-1.2c-0.7-0.8-1.4-1.8-1.9-2.8
					c-0.6-1-1.1-2.1-1.5-3.3c-0.4-1.1-0.8-2.3-1-3.5c-0.1-0.2-0.1-0.5-0.1-0.7c1.7-3.1,3.7-6.4,5.9-9.7c0.2,0.9,0.4,1.9,0.6,2.9
					C164.7,193.6,164.8,194.1,164.9,194.6z"/>
				<path class="st0" d="M154.7,209.2c0.3,0.3,0.7,0.5,1,0.8c0.7,0.5,1.2,1,1.8,1.4c0.6,0.4,1,0.7,1.4,1c0.8,0.6,1.3,1,1.3,1l0,0
					c0.1,0.1,0.2,0.3,0.2,0.4c0,0.3-0.3,0.5-0.5,0.4c0,0-0.6-0.1-1.6-0.3c-0.5-0.1-1.1-0.2-1.8-0.4c-0.7-0.2-1.5-0.5-2.3-0.8
					c-0.4-0.2-0.9-0.4-1.3-0.6c-0.3-0.1-0.6-0.3-0.8-0.4c0.5-1.1,1.1-2.2,1.7-3.5c0,0,0,0,0.1,0.1
					C154,208.6,154.3,208.9,154.7,209.2z"/>
			</g>
			<g>
				<path class="st4" d="M248.8,349.7c11.5,1.4,37.5,2,46.5-7.6c3.7-3.9,5.4-8,11.9-7.4c6.3,0.6,11,6.5,10.1,12.8
					c-1.8,13.4-23.8,13.3-33.7,13.6c-9.8,0.3-27-4.1-40.8-5.8c-18.8-2.3-36.2,7.1-53.6,4.6c0,0,16.7-3,29.2-7.5
					C231,347.9,239.1,348.5,248.8,349.7z"/>
				<path class="st9" d="M132.5,336.3c2.1-1.6,4.4-2.7,5.9-3.5c1.2-0.7,2-0.9,2.7,0c0.8,1.1,2,3.9,2.8,5c2.2,3.2,4.8,6.2,7.8,8.6
					c12,9.6,29,12.8,44,11.5c9.6-0.8,18.3-4.9,27.7-6.6c14.2-3,29.1,0.3,43.4,1.2c11.6,0.7,25.4-0.2,32.8-10.2
					c7.9-10.7,21.2,4.6,8.3,11.1c-5.1,2.8-12.4,3.2-18.1,3.6c-7.8,0.5-15.6,0.6-23.4-0.5c-14.2-1.9-28.8-5.1-43.1-2.1
					c-6.5,1.3-12.6,4.2-19.1,5.5c-8.4,1.9-17.5,1.8-26,0.4c-15.8-2.4-31.7-10.4-39-25.2c-0.5,0-5.3,2.7-5.8,2.8
					C132.6,338.1,131.2,337,132.5,336.3z"/>
			</g>
		</g>
	</g>
</g>
</svg>
